<?xml version="1.0" encoding="UTF-8" standalone="no"?>
<svg
   xmlns:dc="http://purl.org/dc/elements/1.1/"
   xmlns:cc="http://creativecommons.org/ns#"
   xmlns:rdf="http://www.w3.org/1999/02/22-rdf-syntax-ns#"
   xmlns:svg="http://www.w3.org/2000/svg"
   xmlns="http://www.w3.org/2000/svg"
   viewBox="0 0 1016 505.33334"
   height="505.33334"
   width="1016"
   xml:space="preserve"
   id="svg2"
   version="1.1"><metadata
     id="metadata8"><rdf:RDF><cc:Work
         rdf:about=""><dc:format>image/svg+xml</dc:format><dc:type
           rdf:resource="http://purl.org/dc/dcmitype/StillImage" /></cc:Work></rdf:RDF></metadata><defs
     id="defs6"><clipPath
       id="clipPath24"
       clipPathUnits="userSpaceOnUse"><path
         id="path22"
         d="M 0,1 H 761 V 379 H 0 Z" /></clipPath><clipPath
       id="clipPath36"
       clipPathUnits="userSpaceOnUse"><path
         id="path34"
         d="M 0,1 H 761 V 379 H 0 Z" /></clipPath><clipPath
       id="clipPath48"
       clipPathUnits="userSpaceOnUse"><path
         id="path46"
         d="M 0,1 H 761 V 379 H 0 Z" /></clipPath><clipPath
       id="clipPath60"
       clipPathUnits="userSpaceOnUse"><path
         id="path58"
         d="M 0,1 H 761 V 379 H 0 Z" /></clipPath><clipPath
       id="clipPath72"
       clipPathUnits="userSpaceOnUse"><path
         id="path70"
         d="M 54,43 H 648 V 343 H 54 Z" /></clipPath><clipPath
       id="clipPath84"
       clipPathUnits="userSpaceOnUse"><path
         id="path82"
         d="M 0,1 H 761 V 379 H 0 Z" /></clipPath><clipPath
       id="clipPath134"
       clipPathUnits="userSpaceOnUse"><path
         id="path132"
         d="M 54,43 H 648 V 343 H 54 Z" /></clipPath><clipPath
       id="clipPath146"
       clipPathUnits="userSpaceOnUse"><path
         id="path144"
         d="M 0,1 H 761 V 379 H 0 Z" /></clipPath><clipPath
       id="clipPath196"
       clipPathUnits="userSpaceOnUse"><path
         id="path194"
         d="M 0,1 H 761 V 379 H 0 Z" /></clipPath><clipPath
       id="clipPath210"
       clipPathUnits="userSpaceOnUse"><path
         id="path208"
         d="M 0,1 H 761 V 379 H 0 Z" /></clipPath><clipPath
       id="clipPath224"
       clipPathUnits="userSpaceOnUse"><path
         id="path222"
         d="M 0,1 H 761 V 379 H 0 Z" /></clipPath><clipPath
       id="clipPath238"
       clipPathUnits="userSpaceOnUse"><path
         id="path236"
         d="M 0,1 H 761 V 379 H 0 Z" /></clipPath><clipPath
       id="clipPath252"
       clipPathUnits="userSpaceOnUse"><path
         id="path250"
         d="M 0,1 H 761 V 379 H 0 Z" /></clipPath><clipPath
       id="clipPath266"
       clipPathUnits="userSpaceOnUse"><path
         id="path264"
         d="M 0,1 H 761 V 379 H 0 Z" /></clipPath><clipPath
       id="clipPath280"
       clipPathUnits="userSpaceOnUse"><path
         id="path278"
         d="M 0,1 H 761 V 379 H 0 Z" /></clipPath><clipPath
       id="clipPath294"
       clipPathUnits="userSpaceOnUse"><path
         id="path292"
         d="M 0,1 H 761 V 379 H 0 Z" /></clipPath><clipPath
       id="clipPath308"
       clipPathUnits="userSpaceOnUse"><path
         id="path306"
         d="M 0,1 H 761 V 379 H 0 Z" /></clipPath><clipPath
       id="clipPath322"
       clipPathUnits="userSpaceOnUse"><path
         id="path320"
         d="M 0,1 H 761 V 379 H 0 Z" /></clipPath><clipPath
       id="clipPath336"
       clipPathUnits="userSpaceOnUse"><path
         id="path334"
         d="M 0,1 H 761 V 379 H 0 Z" /></clipPath><clipPath
       id="clipPath350"
       clipPathUnits="userSpaceOnUse"><path
         id="path348"
         d="M 0,1 H 761 V 379 H 0 Z" /></clipPath><clipPath
       id="clipPath364"
       clipPathUnits="userSpaceOnUse"><path
         id="path362"
         d="M 0,1 H 761 V 379 H 0 Z" /></clipPath><clipPath
       id="clipPath378"
       clipPathUnits="userSpaceOnUse"><path
         id="path376"
         d="M 0,1 H 761 V 379 H 0 Z" /></clipPath><clipPath
       id="clipPath392"
       clipPathUnits="userSpaceOnUse"><path
         id="path390"
         d="M 0,1 H 761 V 379 H 0 Z" /></clipPath><clipPath
       id="clipPath406"
       clipPathUnits="userSpaceOnUse"><path
         id="path404"
         d="M 0,1 H 761 V 379 H 0 Z" /></clipPath><clipPath
       id="clipPath420"
       clipPathUnits="userSpaceOnUse"><path
         id="path418"
         d="M 0,1 H 761 V 379 H 0 Z" /></clipPath><clipPath
       id="clipPath434"
       clipPathUnits="userSpaceOnUse"><path
         id="path432"
         d="M 0,1 H 761 V 379 H 0 Z" /></clipPath><clipPath
       id="clipPath448"
       clipPathUnits="userSpaceOnUse"><path
         id="path446"
         d="M 0,1 H 761 V 379 H 0 Z" /></clipPath><clipPath
       id="clipPath462"
       clipPathUnits="userSpaceOnUse"><path
         id="path460"
         d="M 0,1 H 761 V 379 H 0 Z" /></clipPath><clipPath
       id="clipPath476"
       clipPathUnits="userSpaceOnUse"><path
         id="path474"
         d="M 0,1 H 761 V 379 H 0 Z" /></clipPath><clipPath
       id="clipPath490"
       clipPathUnits="userSpaceOnUse"><path
         id="path488"
         d="M 0,1 H 761 V 379 H 0 Z" /></clipPath><clipPath
       id="clipPath504"
       clipPathUnits="userSpaceOnUse"><path
         id="path502"
         d="M 0,1 H 761 V 379 H 0 Z" /></clipPath><clipPath
       id="clipPath518"
       clipPathUnits="userSpaceOnUse"><path
         id="path516"
         d="M 0,1 H 761 V 379 H 0 Z" /></clipPath><clipPath
       id="clipPath530"
       clipPathUnits="userSpaceOnUse"><path
         id="path528"
         d="M 0,1 H 761 V 379 H 0 Z" /></clipPath><clipPath
       id="clipPath544"
       clipPathUnits="userSpaceOnUse"><path
         id="path542"
         d="M 0,1 H 761 V 379 H 0 Z" /></clipPath><clipPath
       id="clipPath558"
       clipPathUnits="userSpaceOnUse"><path
         id="path556"
         d="M 0,1 H 761 V 379 H 0 Z" /></clipPath><clipPath
       id="clipPath570"
       clipPathUnits="userSpaceOnUse"><path
         id="path568"
         d="M 0,1 H 761 V 379 H 0 Z" /></clipPath><clipPath
       id="clipPath584"
       clipPathUnits="userSpaceOnUse"><path
         id="path582"
         d="M 0,1 H 761 V 379 H 0 Z" /></clipPath></defs><g
     transform="matrix(1.3333333,0,0,-1.3333333,0,505.33333)"
     id="g10"><g
       id="g12" /><g
       id="g14"><path
         id="path16"
         style="fill:#ffffff;fill-opacity:1;fill-rule:nonzero;stroke:none"
         d="M 0,379 H 761 V 0.9999944 H 0 Z" /></g><g
       id="g18"><g
         clip-path="url(#clipPath24)"
         id="g20"><g
           transform="matrix(7.874016e-5,0,0,-7.874016e-5,54.5,342.5)"
           id="g26"><path
             id="path28"
             style="fill:none;stroke:#d9d9d9;stroke-width:9525;stroke-linecap:butt;stroke-linejoin:round;stroke-miterlimit:10;stroke-dasharray:none;stroke-opacity:1"
             d="M 0,3251200 H 7531100 M 0,2705100 H 7531100 M 0,2171700 H 7531100 M 0,1625600 H 7531100 M 0,1079500 H 7531100 M 0,533400 H 7531100 M 0,0 h 7531100" /></g></g></g><g
       id="g30"><g
         clip-path="url(#clipPath36)"
         id="g32"><g
           transform="matrix(7.874016e-5,0,0,-7.874016e-5,54.5,342.5)"
           id="g38"><path
             id="path40"
             style="fill:none;stroke:#d9d9d9;stroke-width:9525;stroke-linecap:butt;stroke-linejoin:round;stroke-miterlimit:10;stroke-dasharray:none;stroke-opacity:1"
             d="M 838200,0 V 3797300 M 1676400,0 V 3797300 M 2514600,0 V 3797300 M 3352800,0 V 3797300 M 4191000,0 V 3797300 M 5016500,0 V 3797300 M 5854700,0 V 3797300 M 6692900,0 V 3797300 M 7531100,0 v 3797300" /></g></g></g><g
       id="g42"><g
         clip-path="url(#clipPath48)"
         id="g44"><g
           transform="matrix(7.874016e-5,0,0,7.874016e-5,54.5,43.5)"
           id="g50"><path
             id="path52"
             style="fill:none;stroke:#bfbfbf;stroke-width:9525;stroke-linecap:butt;stroke-linejoin:round;stroke-miterlimit:10;stroke-dasharray:none;stroke-opacity:1"
             d="M 0,0 1,3797300" /></g></g></g><g
       id="g54"><g
         clip-path="url(#clipPath60)"
         id="g56"><g
           transform="matrix(7.874016e-5,0,0,-7.874016e-5,54.5,43.5)"
           id="g62"><path
             id="path64"
             style="fill:none;stroke:#bfbfbf;stroke-width:9525;stroke-linecap:butt;stroke-linejoin:round;stroke-miterlimit:10;stroke-dasharray:none;stroke-opacity:1"
             d="M 0,0 7531100,1" /></g></g></g><g
       id="g66"><g
         clip-path="url(#clipPath72)"
         id="g68"><g
           transform="matrix(7.874016e-5,0,0,-7.874016e-5,61,310)"
           id="g74"><path
             id="path76"
             style="fill:none;stroke:#4472c4;stroke-width:19050;stroke-linecap:round;stroke-linejoin:round;stroke-miterlimit:10;stroke-dasharray:none;stroke-opacity:1"
             d="M 0,2832100 C 41877.25,2558224 69795.76,2364326 125633.8,2010471 181470.8,1656616 230327.9,967502.5 335023,708972.4 426286.2,483607.2 571273.3,495328.1 753801.6,459288.9 963185.8,417946.5 1172589,458023.7 1591359,460913 c 417031,2876.4 841051,92205.4 1675114,15707.1 C 4104029,399800.7 5499957,158873 6616700,0" /></g></g></g><g
       id="g78"><g
         clip-path="url(#clipPath84)"
         id="g80"><path
           id="path86"
           style="fill:#4472c4;fill-opacity:1;fill-rule:nonzero;stroke:none"
           d="m 62.5,87.5 c 0,-1.10457 -0.89543,-2 -2,-2 -1.10457,0 -2,0.89543 -2,2 0,1.10457 0.89543,2 2,2 1.10457,0 2,-0.89543 2,-2 z" /><g
           transform="matrix(7.874016e-5,0,0,-7.874016e-5,58,90)"
           id="g88"><path
             id="path90"
             style="fill:none;stroke:#4472c4;stroke-width:9525;stroke-linecap:butt;stroke-linejoin:round;stroke-miterlimit:10;stroke-dasharray:none;stroke-opacity:1"
             d="M 57150,31750 C 57150,45778.03 45778.03,57150 31750,57150 17721.97,57150 6350,45778.03 6350,31750 6350,17721.97 17721.97,6350 31750,6350 c 14028.03,0 25400,11371.97 25400,25400 z" /></g><path
           id="path92"
           style="fill:#4472c4;fill-opacity:1;fill-rule:nonzero;stroke:none"
           d="m 72.5,152.5 c 0,-1.1046 -0.89543,-2 -2,-2 -1.10457,0 -2,0.8954 -2,2 0,1.1046 0.89543,2 2,2 1.10457,0 2,-0.8954 2,-2 z" /><g
           transform="matrix(7.874016e-5,0,0,-7.874016e-5,68,155)"
           id="g94"><path
             id="path96"
             style="fill:none;stroke:#4472c4;stroke-width:9525;stroke-linecap:butt;stroke-linejoin:round;stroke-miterlimit:10;stroke-dasharray:none;stroke-opacity:1"
             d="M 57150,31750 C 57150,45778.03 45778.03,57150 31750,57150 17721.97,57150 6350,45778.03 6350,31750 6350,17721.97 17721.97,6350 31750,6350 c 14028.03,0 25400,11371.97 25400,25400 z" /></g><path
           id="path98"
           style="fill:#4472c4;fill-opacity:1;fill-rule:nonzero;stroke:none"
           d="m 88.5,255.5 c 0,-1.1046 -0.89543,-2 -2,-2 -1.10457,0 -2,0.8954 -2,2 0,1.1046 0.89543,2 2,2 1.10457,0 2,-0.8954 2,-2 z" /><g
           transform="matrix(7.874016e-5,0,0,-7.874016e-5,84,258)"
           id="g100"><path
             id="path102"
             style="fill:none;stroke:#4472c4;stroke-width:9525;stroke-linecap:butt;stroke-linejoin:round;stroke-miterlimit:10;stroke-dasharray:none;stroke-opacity:1"
             d="M 57150,31750 C 57150,45778.03 45778.03,57150 31750,57150 17721.97,57150 6350,45778.03 6350,31750 6350,17721.97 17721.97,6350 31750,6350 c 14028.03,0 25400,11371.97 25400,25400 z" /></g><path
           id="path104"
           style="fill:#4472c4;fill-opacity:1;fill-rule:nonzero;stroke:none"
           d="m 121.5,274.5 c 0,-1.1046 -0.8954,-2 -2,-2 -1.1046,0 -2,0.8954 -2,2 0,1.1046 0.8954,2 2,2 1.1046,0 2,-0.8954 2,-2 z" /><g
           transform="matrix(7.874016e-5,0,0,-7.874016e-5,117,277)"
           id="g106"><path
             id="path108"
             style="fill:none;stroke:#4472c4;stroke-width:9525;stroke-linecap:butt;stroke-linejoin:round;stroke-miterlimit:10;stroke-dasharray:none;stroke-opacity:1"
             d="M 57150,31750 C 57150,45778.03 45778.03,57150 31750,57150 17721.97,57150 6350,45778.03 6350,31750 6350,17721.97 17721.97,6350 31750,6350 c 14028.03,0 25400,11371.97 25400,25400 z" /></g><path
           id="path110"
           style="fill:#4472c4;fill-opacity:1;fill-rule:nonzero;stroke:none"
           d="m 187.5,274.5 c 0,-1.1046 -0.8954,-2 -2,-2 -1.1046,0 -2,0.8954 -2,2 0,1.1046 0.8954,2 2,2 1.1046,0 2,-0.8954 2,-2 z" /><g
           transform="matrix(7.874016e-5,0,0,-7.874016e-5,183,277)"
           id="g112"><path
             id="path114"
             style="fill:none;stroke:#4472c4;stroke-width:9525;stroke-linecap:butt;stroke-linejoin:round;stroke-miterlimit:10;stroke-dasharray:none;stroke-opacity:1"
             d="M 57150,31750 C 57150,45778.03 45778.03,57150 31750,57150 17721.97,57150 6350,45778.03 6350,31750 6350,17721.97 17721.97,6350 31750,6350 c 14028.03,0 25400,11371.97 25400,25400 z" /></g><path
           id="path116"
           style="fill:#4472c4;fill-opacity:1;fill-rule:nonzero;stroke:none"
           d="m 319.5,273.5 c 0,-1.1046 -0.8954,-2 -2,-2 -1.1046,0 -2,0.8954 -2,2 0,1.1046 0.8954,2 2,2 1.1046,0 2,-0.8954 2,-2 z" /><g
           transform="matrix(7.874016e-5,0,0,-7.874016e-5,315,276)"
           id="g118"><path
             id="path120"
             style="fill:none;stroke:#4472c4;stroke-width:9525;stroke-linecap:butt;stroke-linejoin:round;stroke-miterlimit:10;stroke-dasharray:none;stroke-opacity:1"
             d="M 57150,31750 C 57150,45778.03 45778.03,57150 31750,57150 17721.97,57150 6350,45778.03 6350,31750 6350,17721.97 17721.97,6350 31750,6350 c 14028.03,0 25400,11371.97 25400,25400 z" /></g><path
           id="path122"
           style="fill:#4472c4;fill-opacity:1;fill-rule:nonzero;stroke:none"
           d="m 582.5,311.5 c 0,-1.1046 -0.8954,-2 -2,-2 -1.1046,0 -2,0.8954 -2,2 0,1.1046 0.8954,2 2,2 1.1046,0 2,-0.8954 2,-2 z" /><g
           transform="matrix(7.874016e-5,0,0,-7.874016e-5,578,314)"
           id="g124"><path
             id="path126"
             style="fill:none;stroke:#4472c4;stroke-width:9525;stroke-linecap:butt;stroke-linejoin:round;stroke-miterlimit:10;stroke-dasharray:none;stroke-opacity:1"
             d="M 57150,31750 C 57150,45778.03 45778.03,57150 31750,57150 17721.97,57150 6350,45778.03 6350,31750 6350,17721.97 17721.97,6350 31750,6350 c 14028.03,0 25400,11371.97 25400,25400 z" /></g></g></g><g
       id="g128"><g
         clip-path="url(#clipPath134)"
         id="g130"><g
           transform="matrix(7.874016e-5,0,0,-7.874016e-5,61,257)"
           id="g136"><path
             id="path138"
             style="fill:none;stroke:#70ad47;stroke-width:19050;stroke-linecap:round;stroke-linejoin:round;stroke-miterlimit:10;stroke-dasharray:none;stroke-opacity:1"
             d="M 0,2159000 C 41877.25,1887390 69795.76,1675347 125633.8,1344171 181470.8,1012994 230327.9,343883.2 335023,171942.1 439717.2,0 544412.3,300627.2 753801.6,312523.3 963190.8,324418.5 1172580,235473.9 1591359,243314.1 c 418778,7839.3 837557,149772.2 1675114,116249.5 837556,-33523.7 2233484,-211593 3350227,-317388.53" /></g></g></g><g
       id="g140"><g
         clip-path="url(#clipPath146)"
         id="g142"><path
           id="path148"
           style="fill:#70ad47;fill-opacity:1;fill-rule:nonzero;stroke:none"
           d="m 62.5,87.5 c 0,-1.10457 -0.89543,-2 -2,-2 -1.10457,0 -2,0.89543 -2,2 0,1.10457 0.89543,2 2,2 1.10457,0 2,-0.89543 2,-2 z" /><g
           transform="matrix(7.874016e-5,0,0,-7.874016e-5,58,90)"
           id="g150"><path
             id="path152"
             style="fill:none;stroke:#70ad47;stroke-width:9525;stroke-linecap:butt;stroke-linejoin:round;stroke-miterlimit:10;stroke-dasharray:none;stroke-opacity:1"
             d="M 57150,31750 C 57150,45778.03 45778.03,57150 31750,57150 17721.97,57150 6350,45778.03 6350,31750 6350,17721.97 17721.97,6350 31750,6350 c 14028.03,0 25400,11371.97 25400,25400 z" /></g><path
           id="path154"
           style="fill:#70ad47;fill-opacity:1;fill-rule:nonzero;stroke:none"
           d="m 72.5,152.5 c 0,-1.1046 -0.89543,-2 -2,-2 -1.10457,0 -2,0.8954 -2,2 0,1.1046 0.89543,2 2,2 1.10457,0 2,-0.8954 2,-2 z" /><g
           transform="matrix(7.874016e-5,0,0,-7.874016e-5,68,155)"
           id="g156"><path
             id="path158"
             style="fill:none;stroke:#70ad47;stroke-width:9525;stroke-linecap:butt;stroke-linejoin:round;stroke-miterlimit:10;stroke-dasharray:none;stroke-opacity:1"
             d="M 57150,31750 C 57150,45778.03 45778.03,57150 31750,57150 17721.97,57150 6350,45778.03 6350,31750 6350,17721.97 17721.97,6350 31750,6350 c 14028.03,0 25400,11371.97 25400,25400 z" /></g><path
           id="path160"
           style="fill:#70ad47;fill-opacity:1;fill-rule:nonzero;stroke:none"
           d="m 88.5,244.5 c 0,-1.1046 -0.89543,-2 -2,-2 -1.10457,0 -2,0.8954 -2,2 0,1.1046 0.89543,2 2,2 1.10457,0 2,-0.8954 2,-2 z" /><g
           transform="matrix(7.874016e-5,0,0,-7.874016e-5,84,247)"
           id="g162"><path
             id="path164"
             style="fill:none;stroke:#70ad47;stroke-width:9525;stroke-linecap:butt;stroke-linejoin:round;stroke-miterlimit:10;stroke-dasharray:none;stroke-opacity:1"
             d="M 57150,31750 C 57150,45778.03 45778.03,57150 31750,57150 17721.97,57150 6350,45778.03 6350,31750 6350,17721.97 17721.97,6350 31750,6350 c 14028.03,0 25400,11371.97 25400,25400 z" /></g><path
           id="path166"
           style="fill:#70ad47;fill-opacity:1;fill-rule:nonzero;stroke:none"
           d="m 121.5,233.5 c 0,-1.1046 -0.8954,-2 -2,-2 -1.1046,0 -2,0.8954 -2,2 0,1.1046 0.8954,2 2,2 1.1046,0 2,-0.8954 2,-2 z" /><g
           transform="matrix(7.874016e-5,0,0,-7.874016e-5,117,236)"
           id="g168"><path
             id="path170"
             style="fill:none;stroke:#70ad47;stroke-width:9525;stroke-linecap:butt;stroke-linejoin:round;stroke-miterlimit:10;stroke-dasharray:none;stroke-opacity:1"
             d="M 57150,31750 C 57150,45778.03 45778.03,57150 31750,57150 17721.97,57150 6350,45778.03 6350,31750 6350,17721.97 17721.97,6350 31750,6350 c 14028.03,0 25400,11371.97 25400,25400 z" /></g><path
           id="path172"
           style="fill:#70ad47;fill-opacity:1;fill-rule:nonzero;stroke:none"
           d="m 187.5,239.5 c 0,-1.1046 -0.8954,-2 -2,-2 -1.1046,0 -2,0.8954 -2,2 0,1.1046 0.8954,2 2,2 1.1046,0 2,-0.8954 2,-2 z" /><g
           transform="matrix(7.874016e-5,0,0,-7.874016e-5,183,242)"
           id="g174"><path
             id="path176"
             style="fill:none;stroke:#70ad47;stroke-width:9525;stroke-linecap:butt;stroke-linejoin:round;stroke-miterlimit:10;stroke-dasharray:none;stroke-opacity:1"
             d="M 57150,31750 C 57150,45778.03 45778.03,57150 31750,57150 17721.97,57150 6350,45778.03 6350,31750 6350,17721.97 17721.97,6350 31750,6350 c 14028.03,0 25400,11371.97 25400,25400 z" /></g><path
           id="path178"
           style="fill:#70ad47;fill-opacity:1;fill-rule:nonzero;stroke:none"
           d="m 319.5,229.5 c 0,-1.1046 -0.8954,-2 -2,-2 -1.1046,0 -2,0.8954 -2,2 0,1.1046 0.8954,2 2,2 1.1046,0 2,-0.8954 2,-2 z" /><g
           transform="matrix(7.874016e-5,0,0,-7.874016e-5,315,232)"
           id="g180"><path
             id="path182"
             style="fill:none;stroke:#70ad47;stroke-width:9525;stroke-linecap:butt;stroke-linejoin:round;stroke-miterlimit:10;stroke-dasharray:none;stroke-opacity:1"
             d="M 57150,31750 C 57150,45778.03 45778.03,57150 31750,57150 17721.97,57150 6350,45778.03 6350,31750 6350,17721.97 17721.97,6350 31750,6350 c 14028.03,0 25400,11371.97 25400,25400 z" /></g><path
           id="path184"
           style="fill:#70ad47;fill-opacity:1;fill-rule:nonzero;stroke:none"
           d="m 582.5,255.5 c 0,-1.1046 -0.8954,-2 -2,-2 -1.1046,0 -2,0.8954 -2,2 0,1.1046 0.8954,2 2,2 1.1046,0 2,-0.8954 2,-2 z" /><g
           transform="matrix(7.874016e-5,0,0,-7.874016e-5,578,258)"
           id="g186"><path
             id="path188"
             style="fill:none;stroke:#70ad47;stroke-width:9525;stroke-linecap:butt;stroke-linejoin:round;stroke-miterlimit:10;stroke-dasharray:none;stroke-opacity:1"
             d="M 57150,31750 C 57150,45778.03 45778.03,57150 31750,57150 17721.97,57150 6350,45778.03 6350,31750 6350,17721.97 17721.97,6350 31750,6350 c 14028.03,0 25400,11371.97 25400,25400 z" /></g></g></g><g
       id="g190"><g
         clip-path="url(#clipPath196)"
         id="g192"><g
           transform="translate(42.01512,-338)"
           id="g198"><text
             id="text202"
             style="font-variant:normal;font-weight:normal;font-size:9px;font-family:ArialMT;-inkscape-font-specification:ArialMT;writing-mode:lr-tb;fill:#595959;fill-opacity:1;fill-rule:nonzero;stroke:none"
             transform="matrix(1,0,0,-1,0,379)"><tspan
               id="tspan200"
               y="0"
               x="0">0</tspan></text>
</g></g></g><g
       id="g204"><g
         clip-path="url(#clipPath210)"
         id="g206"><g
           transform="translate(27,-295)"
           id="g212"><text
             id="text216"
             style="font-variant:normal;font-weight:normal;font-size:9px;font-family:ArialMT;-inkscape-font-specification:ArialMT;writing-mode:lr-tb;fill:#595959;fill-opacity:1;fill-rule:nonzero;stroke:none"
             transform="matrix(1,0,0,-1,0,379)"><tspan
               id="tspan214"
               y="0"
               x="0 5.0004001 10.0008 15.0012">1000</tspan></text>
</g></g></g><g
       id="g218"><g
         clip-path="url(#clipPath224)"
         id="g220"><g
           transform="translate(27,-252)"
           id="g226"><text
             id="text230"
             style="font-variant:normal;font-weight:normal;font-size:9px;font-family:ArialMT;-inkscape-font-specification:ArialMT;writing-mode:lr-tb;fill:#595959;fill-opacity:1;fill-rule:nonzero;stroke:none"
             transform="matrix(1,0,0,-1,0,379)"><tspan
               id="tspan228"
               y="0"
               x="0 5.0004001 10.0008 15.0012">2000</tspan></text>
</g></g></g><g
       id="g232"><g
         clip-path="url(#clipPath238)"
         id="g234"><g
           transform="translate(27,-210)"
           id="g240"><text
             id="text244"
             style="font-variant:normal;font-weight:normal;font-size:9px;font-family:ArialMT;-inkscape-font-specification:ArialMT;writing-mode:lr-tb;fill:#595959;fill-opacity:1;fill-rule:nonzero;stroke:none"
             transform="matrix(1,0,0,-1,0,379)"><tspan
               id="tspan242"
               y="0"
               x="0 5.0004001 10.0008 15.0012">3000</tspan></text>
</g></g></g><g
       id="g246"><g
         clip-path="url(#clipPath252)"
         id="g248"><g
           transform="translate(27,-167)"
           id="g254"><text
             id="text258"
             style="font-variant:normal;font-weight:normal;font-size:9px;font-family:ArialMT;-inkscape-font-specification:ArialMT;writing-mode:lr-tb;fill:#595959;fill-opacity:1;fill-rule:nonzero;stroke:none"
             transform="matrix(1,0,0,-1,0,379)"><tspan
               id="tspan256"
               y="0"
               x="0 5.0004001 10.0008 15.0012">4000</tspan></text>
</g></g></g><g
       id="g260"><g
         clip-path="url(#clipPath266)"
         id="g262"><g
           transform="translate(27,-124)"
           id="g268"><text
             id="text272"
             style="font-variant:normal;font-weight:normal;font-size:9px;font-family:ArialMT;-inkscape-font-specification:ArialMT;writing-mode:lr-tb;fill:#595959;fill-opacity:1;fill-rule:nonzero;stroke:none"
             transform="matrix(1,0,0,-1,0,379)"><tspan
               id="tspan270"
               y="0"
               x="0 5.0004001 10.0008 15.0012">5000</tspan></text>
</g></g></g><g
       id="g274"><g
         clip-path="url(#clipPath280)"
         id="g276"><g
           transform="translate(27,-81)"
           id="g282"><text
             id="text286"
             style="font-variant:normal;font-weight:normal;font-size:9px;font-family:ArialMT;-inkscape-font-specification:ArialMT;writing-mode:lr-tb;fill:#595959;fill-opacity:1;fill-rule:nonzero;stroke:none"
             transform="matrix(1,0,0,-1,0,379)"><tspan
               id="tspan284"
               y="0"
               x="0 5.0004001 10.0008 15.0012">6000</tspan></text>
</g></g></g><g
       id="g288"><g
         clip-path="url(#clipPath294)"
         id="g290"><g
           transform="translate(27,-39)"
           id="g296"><text
             id="text300"
             style="font-variant:normal;font-weight:normal;font-size:9px;font-family:ArialMT;-inkscape-font-specification:ArialMT;writing-mode:lr-tb;fill:#595959;fill-opacity:1;fill-rule:nonzero;stroke:none"
             transform="matrix(1,0,0,-1,0,379)"><tspan
               id="tspan298"
               y="0"
               x="0 5.0004001 10.0008 15.0012">7000</tspan></text>
</g></g></g><g
       id="g302"><g
         clip-path="url(#clipPath308)"
         id="g304"><g
           transform="translate(52.25764,-349)"
           id="g310"><text
             id="text314"
             style="font-variant:normal;font-weight:normal;font-size:9px;font-family:ArialMT;-inkscape-font-specification:ArialMT;writing-mode:lr-tb;fill:#595959;fill-opacity:1;fill-rule:nonzero;stroke:none"
             transform="matrix(1,0,0,-1,0,379)"><tspan
               id="tspan312"
               y="0"
               x="0">0</tspan></text>
</g></g></g><g
       id="g316"><g
         clip-path="url(#clipPath322)"
         id="g318"><g
           transform="translate(110.6061,-349)"
           id="g324"><text
             id="text328"
             style="font-variant:normal;font-weight:normal;font-size:9px;font-family:ArialMT;-inkscape-font-specification:ArialMT;writing-mode:lr-tb;fill:#595959;fill-opacity:1;fill-rule:nonzero;stroke:none"
             transform="matrix(1,0,0,-1,0,379)"><tspan
               id="tspan326"
               y="0"
               x="0 5.0004001 10.0008 15.0012">1000</tspan></text>
</g></g></g><g
       id="g330"><g
         clip-path="url(#clipPath336)"
         id="g332"><g
           transform="translate(176.4622,-349)"
           id="g338"><text
             id="text342"
             style="font-variant:normal;font-weight:normal;font-size:9px;font-family:ArialMT;-inkscape-font-specification:ArialMT;writing-mode:lr-tb;fill:#595959;fill-opacity:1;fill-rule:nonzero;stroke:none"
             transform="matrix(1,0,0,-1,0,379)"><tspan
               id="tspan340"
               y="0"
               x="0 5.0004001 10.0008 15.0012">2000</tspan></text>
</g></g></g><g
       id="g344"><g
         clip-path="url(#clipPath350)"
         id="g346"><g
           transform="translate(242.3183,-349)"
           id="g352"><text
             id="text356"
             style="font-variant:normal;font-weight:normal;font-size:9px;font-family:ArialMT;-inkscape-font-specification:ArialMT;writing-mode:lr-tb;fill:#595959;fill-opacity:1;fill-rule:nonzero;stroke:none"
             transform="matrix(1,0,0,-1,0,379)"><tspan
               id="tspan354"
               y="0"
               x="0 5.0004001 10.0008 15.0012">3000</tspan></text>
</g></g></g><g
       id="g358"><g
         clip-path="url(#clipPath364)"
         id="g360"><g
           transform="translate(308.1743,-349)"
           id="g366"><text
             id="text370"
             style="font-variant:normal;font-weight:normal;font-size:9px;font-family:ArialMT;-inkscape-font-specification:ArialMT;writing-mode:lr-tb;fill:#595959;fill-opacity:1;fill-rule:nonzero;stroke:none"
             transform="matrix(1,0,0,-1,0,379)"><tspan
               id="tspan368"
               y="0"
               x="0 5.0004001 10.0008 15.0012">4000</tspan></text>
</g></g></g><g
       id="g372"><g
         clip-path="url(#clipPath378)"
         id="g374"><g
           transform="translate(374.0303,-349)"
           id="g380"><text
             id="text384"
             style="font-variant:normal;font-weight:normal;font-size:9px;font-family:ArialMT;-inkscape-font-specification:ArialMT;writing-mode:lr-tb;fill:#595959;fill-opacity:1;fill-rule:nonzero;stroke:none"
             transform="matrix(1,0,0,-1,0,379)"><tspan
               id="tspan382"
               y="0"
               x="0 5.0004001 10.0008 15.0012">5000</tspan></text>
</g></g></g><g
       id="g386"><g
         clip-path="url(#clipPath392)"
         id="g388"><g
           transform="translate(439.8864,-349)"
           id="g394"><text
             id="text398"
             style="font-variant:normal;font-weight:normal;font-size:9px;font-family:ArialMT;-inkscape-font-specification:ArialMT;writing-mode:lr-tb;fill:#595959;fill-opacity:1;fill-rule:nonzero;stroke:none"
             transform="matrix(1,0,0,-1,0,379)"><tspan
               id="tspan396"
               y="0"
               x="0 5.0004001 10.0008 15.0012">6000</tspan></text>
</g></g></g><g
       id="g400"><g
         clip-path="url(#clipPath406)"
         id="g402"><g
           transform="translate(505.7424,-349)"
           id="g408"><text
             id="text412"
             style="font-variant:normal;font-weight:normal;font-size:9px;font-family:ArialMT;-inkscape-font-specification:ArialMT;writing-mode:lr-tb;fill:#595959;fill-opacity:1;fill-rule:nonzero;stroke:none"
             transform="matrix(1,0,0,-1,0,379)"><tspan
               id="tspan410"
               y="0"
               x="0 5.0004001 10.0008 15.0012">7000</tspan></text>
</g></g></g><g
       id="g414"><g
         clip-path="url(#clipPath420)"
         id="g416"><g
           transform="translate(571.5985,-349)"
           id="g422"><text
             id="text426"
             style="font-variant:normal;font-weight:normal;font-size:9px;font-family:ArialMT;-inkscape-font-specification:ArialMT;writing-mode:lr-tb;fill:#595959;fill-opacity:1;fill-rule:nonzero;stroke:none"
             transform="matrix(1,0,0,-1,0,379)"><tspan
               id="tspan424"
               y="0"
               x="0 5.0004001 10.0008 15.0012">8000</tspan></text>
</g></g></g><g
       id="g428"><g
         clip-path="url(#clipPath434)"
         id="g430"><g
           transform="translate(637.4546,-349)"
           id="g436"><text
             id="text440"
             style="font-variant:normal;font-weight:normal;font-size:9px;font-family:ArialMT;-inkscape-font-specification:ArialMT;writing-mode:lr-tb;fill:#595959;fill-opacity:1;fill-rule:nonzero;stroke:none"
             transform="matrix(1,0,0,-1,0,379)"><tspan
               id="tspan438"
               y="0"
               x="0 5.0004001 10.0008 15.0012">9000</tspan></text>
</g></g></g><g
       id="g442"><g
         clip-path="url(#clipPath448)"
         id="g444"><g
           transform="rotate(90,124.25,276.25)"
           id="g450"><text
             id="text454"
             style="font-variant:normal;font-weight:normal;font-size:10px;font-family:ArialMT;-inkscape-font-specification:ArialMT;writing-mode:lr-tb;fill:#595959;fill-opacity:1;fill-rule:nonzero;stroke:none"
             transform="matrix(1,0,0,-1,0,379)"><tspan
               id="tspan452"
               y="0"
               x="0 6.1100001 11.67 15 20.559999 26.120001 31.68 37.240002 42.799999 48.360001 51.139999 53.919998 57.25 60.580002 66.139999 71.699997 74.480003 79.480003">Throughput (req/s)</tspan></text>
</g></g></g><g
       id="g456"><g
         clip-path="url(#clipPath462)"
         id="g458"><g
           transform="translate(278.0323,-363)"
           id="g464"><text
             id="text468"
             style="font-variant:normal;font-weight:normal;font-size:10px;font-family:ArialMT;-inkscape-font-specification:ArialMT;writing-mode:lr-tb;fill:#595959;fill-opacity:1;fill-rule:nonzero;stroke:none"
             transform="matrix(1,0,0,-1,0,379)"><tspan
               id="tspan466"
               y="0"
               x="0 7.2199998 12.78 18.34 23.34 28.9 32.23 35.560001 41.119999 46.68 51.68 56.68 59.459999 65.019997 70.580002 75.580002 81.139999 83.360001 86.139999 89.470001 94.470001 100.03 105.59 111.15 116.71 121.71 124.49 126.71 132.27 137.83 142.83">Concurrency Level (connections)</tspan></text>
</g></g></g><g
       id="g470"><g
         clip-path="url(#clipPath476)"
         id="g472"><g
           transform="translate(193.6174,-20)"
           id="g478"><text
             id="text482"
             style="font-variant:normal;font-weight:normal;font-size:14px;font-family:ArialMT;-inkscape-font-specification:ArialMT;writing-mode:lr-tb;fill:#595959;fill-opacity:1;fill-rule:nonzero;stroke:none"
             transform="matrix(1,0,0,-1,0,379)"><tspan
               id="tspan480"
               y="0"
               x="0 8.5497999 16.335199 20.9958 28.7812 36.566601 44.352001 52.137402 59.922798 67.708199 71.598801 75.489403 79.379997 87.165398 91.825996 95.716599 103.502 111.2874 119.0728 130.7334 137.7334 141.62399 146.28461 154.07001 161.85539 169.64079 177.42619 184.42619 188.3168 195.3168">Throughput for 100ms requests </tspan></text>
</g></g></g><g
       id="g484"><g
         clip-path="url(#clipPath490)"
         id="g486"><g
           transform="translate(392.8124,-20)"
           id="g492"><text
             id="text496"
             style="font-variant:normal;font-weight:normal;font-size:14px;font-family:ArialMT;-inkscape-font-specification:ArialMT;writing-mode:lr-tb;fill:#595959;fill-opacity:1;fill-rule:nonzero;stroke:none"
             transform="matrix(1,0,0,-1,0,379)"><tspan
               id="tspan494"
               y="0"
               x="0">—</tspan></text>
</g></g></g><g
       id="g498"><g
         clip-path="url(#clipPath504)"
         id="g500"><g
           transform="translate(410.7024,-20)"
           id="g506"><text
             id="text510"
             style="font-variant:normal;font-weight:normal;font-size:14px;font-family:ArialMT;-inkscape-font-specification:ArialMT;writing-mode:lr-tb;fill:#595959;fill-opacity:1;fill-rule:nonzero;stroke:none"
             transform="matrix(1,0,0,-1,0,379)"><tspan
               id="tspan508"
               y="0"
               x="0 7 10.1094 14.77 18.660601 26.445999 34.2314 37.340801 41.2314 49.0168 56.8022 64.587601 68.478203 75.478203 83.263603 87.924202 95.709602 103.495 106.6044 110.495 114.3856 122.171 126.8316 134.617 142.4024 150.18781 157.18781">virtual and kernel threads </tspan></text>
</g></g></g><g
       id="g512"><g
         clip-path="url(#clipPath518)"
         id="g514"><g
           transform="matrix(7.874016e-5,0,0,-7.874016e-5,673,185)"
           id="g520"><path
             id="path522"
             style="fill:none;stroke:#4472c4;stroke-width:19050;stroke-linecap:round;stroke-linejoin:round;stroke-miterlimit:10;stroke-dasharray:none;stroke-opacity:1"
             d="M 0,0 241300,1" /></g></g></g><g
       id="g524"><g
         clip-path="url(#clipPath530)"
         id="g526"><path
           id="path532"
           style="fill:#4472c4;fill-opacity:1;fill-rule:nonzero;stroke:none"
           d="m 684,186 c 0,-1.1046 -0.8954,-2 -2,-2 -1.1046,0 -2,0.8954 -2,2 0,1.1046 0.8954,2 2,2 1.1046,0 2,-0.8954 2,-2 z" /><g
           transform="matrix(7.874016e-5,0,0,-7.874016e-5,679.5,188.5)"
           id="g534"><path
             id="path536"
             style="fill:none;stroke:#4472c4;stroke-width:9525;stroke-linecap:butt;stroke-linejoin:round;stroke-miterlimit:10;stroke-dasharray:none;stroke-opacity:1"
             d="M 57150,31750 C 57150,45778.03 45778.03,57150 31750,57150 17721.97,57150 6350,45778.03 6350,31750 6350,17721.97 17721.97,6350 31750,6350 c 14028.03,0 25400,11371.97 25400,25400 z" /></g></g></g><g
       id="g538"><g
         clip-path="url(#clipPath544)"
         id="g540"><g
           transform="translate(694.3496,-196)"
           id="g546"><text
             id="text550"
             style="font-variant:normal;font-weight:normal;font-size:9px;font-family:ArialMT;-inkscape-font-specification:ArialMT;writing-mode:lr-tb;fill:#595959;fill-opacity:1;fill-rule:nonzero;stroke:none"
             transform="matrix(1,0,0,-1,0,379)"><tspan
               id="tspan548"
               y="0"
               x="0 5.0004001 7.0037999 9.0072002 12.0096 17.01 22.010401 24.0138 27.016199 29.0196 34.02 37.0224 42.0228 47.023201 52.023602">virtual threads</tspan></text>
</g></g></g><g
       id="g552"><g
         clip-path="url(#clipPath558)"
         id="g554"><g
           transform="matrix(7.874016e-5,0,0,-7.874016e-5,673,169)"
           id="g560"><path
             id="path562"
             style="fill:none;stroke:#70ad47;stroke-width:19050;stroke-linecap:round;stroke-linejoin:round;stroke-miterlimit:10;stroke-dasharray:none;stroke-opacity:1"
             d="M 0,0 241300,1" /></g></g></g><g
       id="g564"><g
         clip-path="url(#clipPath570)"
         id="g566"><path
           id="path572"
           style="fill:#70ad47;fill-opacity:1;fill-rule:nonzero;stroke:none"
           d="m 684,170 c 0,-1.1046 -0.8954,-2 -2,-2 -1.1046,0 -2,0.8954 -2,2 0,1.1046 0.8954,2 2,2 1.1046,0 2,-0.8954 2,-2 z" /><g
           transform="matrix(7.874016e-5,0,0,-7.874016e-5,679.5,172.5)"
           id="g574"><path
             id="path576"
             style="fill:none;stroke:#70ad47;stroke-width:9525;stroke-linecap:butt;stroke-linejoin:round;stroke-miterlimit:10;stroke-dasharray:none;stroke-opacity:1"
             d="M 57150,31750 C 57150,45778.03 45778.03,57150 31750,57150 17721.97,57150 6350,45778.03 6350,31750 6350,17721.97 17721.97,6350 31750,6350 c 14028.03,0 25400,11371.97 25400,25400 z" /></g></g></g><g
       id="g578"><g
         clip-path="url(#clipPath584)"
         id="g580"><g
           transform="translate(694.3496,-212)"
           id="g586"><text
             id="text590"
             style="font-variant:normal;font-weight:normal;font-size:9px;font-family:ArialMT;-inkscape-font-specification:ArialMT;writing-mode:lr-tb;fill:#595959;fill-opacity:1;fill-rule:nonzero;stroke:none"
             transform="matrix(1,0,0,-1,0,379)"><tspan
               id="tspan588"
               y="0"
               x="0 5.0004001 10.0008 13.0032 18.003599 23.004 25.007401 27.010799 30.013201 35.013599 38.015999 43.016399 48.0168 53.0172">kernel threads</tspan></text>
</g></g></g><g
       id="g592"><g
         transform="matrix(7.874016e-5,0,0,-7.874016e-5,0.5,378.5)"
         id="g594"><path
           id="path596"
           style="fill:none;stroke:#d9d9d9;stroke-width:9525;stroke-linecap:butt;stroke-linejoin:round;stroke-miterlimit:10;stroke-dasharray:none;stroke-opacity:1"
           d="M 0,0 H 9664700 V 4800600 H 0 Z" /></g></g></g></svg>