<?xml version="1.0" encoding="UTF-8" standalone="no"?>
<svg
   xmlns:dc="http://purl.org/dc/elements/1.1/"
   xmlns:cc="http://creativecommons.org/ns#"
   xmlns:rdf="http://www.w3.org/1999/02/22-rdf-syntax-ns#"
   xmlns:svg="http://www.w3.org/2000/svg"
   xmlns="http://www.w3.org/2000/svg"
   viewBox="0 0 1016 505.33334"
   height="505.33334"
   width="1016"
   xml:space="preserve"
   id="svg2"
   version="1.1"><metadata
     id="metadata8"><rdf:RDF><cc:Work
         rdf:about=""><dc:format>image/svg+xml</dc:format><dc:type
           rdf:resource="http://purl.org/dc/dcmitype/StillImage" /></cc:Work></rdf:RDF></metadata><defs
     id="defs6"><clipPath
       id="clipPath24"
       clipPathUnits="userSpaceOnUse"><path
         id="path22"
         d="M 0,1 H 761 V 379 H 0 Z" /></clipPath><clipPath
       id="clipPath36"
       clipPathUnits="userSpaceOnUse"><path
         id="path34"
         d="M 0,1 H 761 V 379 H 0 Z" /></clipPath><clipPath
       id="clipPath48"
       clipPathUnits="userSpaceOnUse"><path
         id="path46"
         d="M 0,1 H 761 V 379 H 0 Z" /></clipPath><clipPath
       id="clipPath60"
       clipPathUnits="userSpaceOnUse"><path
         id="path58"
         d="M 0,1 H 761 V 379 H 0 Z" /></clipPath><clipPath
       id="clipPath72"
       clipPathUnits="userSpaceOnUse"><path
         id="path70"
         d="M 59,43 H 648 V 343 H 59 Z" /></clipPath><clipPath
       id="clipPath84"
       clipPathUnits="userSpaceOnUse"><path
         id="path82"
         d="M 0,1 H 761 V 379 H 0 Z" /></clipPath><clipPath
       id="clipPath134"
       clipPathUnits="userSpaceOnUse"><path
         id="path132"
         d="M 59,43 H 648 V 343 H 59 Z" /></clipPath><clipPath
       id="clipPath146"
       clipPathUnits="userSpaceOnUse"><path
         id="path144"
         d="M 0,1 H 761 V 379 H 0 Z" /></clipPath><clipPath
       id="clipPath160"
       clipPathUnits="userSpaceOnUse"><path
         id="path158"
         d="M 0,1 H 761 V 379 H 0 Z" /></clipPath><clipPath
       id="clipPath174"
       clipPathUnits="userSpaceOnUse"><path
         id="path172"
         d="M 0,1 H 761 V 379 H 0 Z" /></clipPath><clipPath
       id="clipPath188"
       clipPathUnits="userSpaceOnUse"><path
         id="path186"
         d="M 0,1 H 761 V 379 H 0 Z" /></clipPath><clipPath
       id="clipPath202"
       clipPathUnits="userSpaceOnUse"><path
         id="path200"
         d="M 0,1 H 761 V 379 H 0 Z" /></clipPath><clipPath
       id="clipPath216"
       clipPathUnits="userSpaceOnUse"><path
         id="path214"
         d="M 0,1 H 761 V 379 H 0 Z" /></clipPath><clipPath
       id="clipPath230"
       clipPathUnits="userSpaceOnUse"><path
         id="path228"
         d="M 0,1 H 761 V 379 H 0 Z" /></clipPath><clipPath
       id="clipPath244"
       clipPathUnits="userSpaceOnUse"><path
         id="path242"
         d="M 0,1 H 761 V 379 H 0 Z" /></clipPath><clipPath
       id="clipPath258"
       clipPathUnits="userSpaceOnUse"><path
         id="path256"
         d="M 0,1 H 761 V 379 H 0 Z" /></clipPath><clipPath
       id="clipPath272"
       clipPathUnits="userSpaceOnUse"><path
         id="path270"
         d="M 0,1 H 761 V 379 H 0 Z" /></clipPath><clipPath
       id="clipPath286"
       clipPathUnits="userSpaceOnUse"><path
         id="path284"
         d="M 0,1 H 761 V 379 H 0 Z" /></clipPath><clipPath
       id="clipPath300"
       clipPathUnits="userSpaceOnUse"><path
         id="path298"
         d="M 0,1 H 761 V 379 H 0 Z" /></clipPath><clipPath
       id="clipPath314"
       clipPathUnits="userSpaceOnUse"><path
         id="path312"
         d="M 0,1 H 761 V 379 H 0 Z" /></clipPath><clipPath
       id="clipPath328"
       clipPathUnits="userSpaceOnUse"><path
         id="path326"
         d="M 0,1 H 761 V 379 H 0 Z" /></clipPath><clipPath
       id="clipPath342"
       clipPathUnits="userSpaceOnUse"><path
         id="path340"
         d="M 0,1 H 761 V 379 H 0 Z" /></clipPath><clipPath
       id="clipPath356"
       clipPathUnits="userSpaceOnUse"><path
         id="path354"
         d="M 0,1 H 761 V 379 H 0 Z" /></clipPath><clipPath
       id="clipPath370"
       clipPathUnits="userSpaceOnUse"><path
         id="path368"
         d="M 0,1 H 761 V 379 H 0 Z" /></clipPath><clipPath
       id="clipPath384"
       clipPathUnits="userSpaceOnUse"><path
         id="path382"
         d="M 0,1 H 761 V 379 H 0 Z" /></clipPath><clipPath
       id="clipPath398"
       clipPathUnits="userSpaceOnUse"><path
         id="path396"
         d="M 0,1 H 761 V 379 H 0 Z" /></clipPath><clipPath
       id="clipPath412"
       clipPathUnits="userSpaceOnUse"><path
         id="path410"
         d="M 0,1 H 761 V 379 H 0 Z" /></clipPath><clipPath
       id="clipPath426"
       clipPathUnits="userSpaceOnUse"><path
         id="path424"
         d="M 0,1 H 761 V 379 H 0 Z" /></clipPath><clipPath
       id="clipPath440"
       clipPathUnits="userSpaceOnUse"><path
         id="path438"
         d="M 0,1 H 761 V 379 H 0 Z" /></clipPath><clipPath
       id="clipPath454"
       clipPathUnits="userSpaceOnUse"><path
         id="path452"
         d="M 0,1 H 761 V 379 H 0 Z" /></clipPath><clipPath
       id="clipPath468"
       clipPathUnits="userSpaceOnUse"><path
         id="path466"
         d="M 0,1 H 761 V 379 H 0 Z" /></clipPath><clipPath
       id="clipPath482"
       clipPathUnits="userSpaceOnUse"><path
         id="path480"
         d="M 0,1 H 761 V 379 H 0 Z" /></clipPath><clipPath
       id="clipPath496"
       clipPathUnits="userSpaceOnUse"><path
         id="path494"
         d="M 0,1 H 761 V 379 H 0 Z" /></clipPath><clipPath
       id="clipPath510"
       clipPathUnits="userSpaceOnUse"><path
         id="path508"
         d="M 0,1 H 761 V 379 H 0 Z" /></clipPath><clipPath
       id="clipPath524"
       clipPathUnits="userSpaceOnUse"><path
         id="path522"
         d="M 0,1 H 761 V 379 H 0 Z" /></clipPath><clipPath
       id="clipPath538"
       clipPathUnits="userSpaceOnUse"><path
         id="path536"
         d="M 0,1 H 761 V 379 H 0 Z" /></clipPath><clipPath
       id="clipPath552"
       clipPathUnits="userSpaceOnUse"><path
         id="path550"
         d="M 0,1 H 761 V 379 H 0 Z" /></clipPath><clipPath
       id="clipPath566"
       clipPathUnits="userSpaceOnUse"><path
         id="path564"
         d="M 0,1 H 761 V 379 H 0 Z" /></clipPath><clipPath
       id="clipPath580"
       clipPathUnits="userSpaceOnUse"><path
         id="path578"
         d="M 0,1 H 761 V 379 H 0 Z" /></clipPath><clipPath
       id="clipPath592"
       clipPathUnits="userSpaceOnUse"><path
         id="path590"
         d="M 0,1 H 761 V 379 H 0 Z" /></clipPath><clipPath
       id="clipPath606"
       clipPathUnits="userSpaceOnUse"><path
         id="path604"
         d="M 0,1 H 761 V 379 H 0 Z" /></clipPath><clipPath
       id="clipPath620"
       clipPathUnits="userSpaceOnUse"><path
         id="path618"
         d="M 0,1 H 761 V 379 H 0 Z" /></clipPath><clipPath
       id="clipPath632"
       clipPathUnits="userSpaceOnUse"><path
         id="path630"
         d="M 0,1 H 761 V 379 H 0 Z" /></clipPath><clipPath
       id="clipPath646"
       clipPathUnits="userSpaceOnUse"><path
         id="path644"
         d="M 0,1 H 761 V 379 H 0 Z" /></clipPath></defs><g
     transform="matrix(1.3333333,0,0,-1.3333333,0,505.33333)"
     id="g10"><g
       id="g12" /><g
       id="g14"><path
         id="path16"
         style="fill:#ffffff;fill-opacity:1;fill-rule:nonzero;stroke:none"
         d="M 0,379 H 761 V 0.9999944 H 0 Z" /></g><g
       id="g18"><g
         clip-path="url(#clipPath24)"
         id="g20"><g
           transform="matrix(7.874016e-5,0,0,-7.874016e-5,59.5,342.5)"
           id="g26"><path
             id="path28"
             style="fill:none;stroke:#d9d9d9;stroke-width:9525;stroke-linecap:butt;stroke-linejoin:round;stroke-miterlimit:10;stroke-dasharray:none;stroke-opacity:1"
             d="M 0,3327400 H 7467600 M 0,2844800 H 7467600 M 0,2374900 H 7467600 M 0,1892300 H 7467600 M 0,1422400 H 7467600 M 0,939800 H 7467600 M 0,469900 H 7467600 M 0,0 h 7467600" /></g></g></g><g
       id="g30"><g
         clip-path="url(#clipPath36)"
         id="g32"><g
           transform="matrix(7.874016e-5,0,0,-7.874016e-5,59.5,342.5)"
           id="g38"><path
             id="path40"
             style="fill:none;stroke:#d9d9d9;stroke-width:9525;stroke-linecap:butt;stroke-linejoin:round;stroke-miterlimit:10;stroke-dasharray:none;stroke-opacity:1"
             d="M 838200,0 V 3797300 M 1663700,0 V 3797300 M 2489200,0 V 3797300 M 3314700,0 V 3797300 M 4152900,0 V 3797300 M 4978400,0 V 3797300 M 5803900,0 V 3797300 M 6642100,0 V 3797300 M 7467600,0 v 3797300" /></g></g></g><g
       id="g42"><g
         clip-path="url(#clipPath48)"
         id="g44"><g
           transform="matrix(7.874016e-5,0,0,7.874016e-5,59.5,43.5)"
           id="g50"><path
             id="path52"
             style="fill:none;stroke:#bfbfbf;stroke-width:9525;stroke-linecap:butt;stroke-linejoin:round;stroke-miterlimit:10;stroke-dasharray:none;stroke-opacity:1"
             d="M 0,0 1,3797300" /></g></g></g><g
       id="g54"><g
         clip-path="url(#clipPath60)"
         id="g56"><g
           transform="matrix(7.874016e-5,0,0,-7.874016e-5,59.5,43.5)"
           id="g62"><path
             id="path64"
             style="fill:none;stroke:#bfbfbf;stroke-width:9525;stroke-linecap:butt;stroke-linejoin:round;stroke-miterlimit:10;stroke-dasharray:none;stroke-opacity:1"
             d="M 0,0 7467600,1" /></g></g></g><g
       id="g66"><g
         clip-path="url(#clipPath72)"
         id="g68"><g
           transform="matrix(7.874016e-5,0,0,-7.874016e-5,66,320)"
           id="g74"><path
             id="path76"
             style="fill:none;stroke:#4472c4;stroke-width:19050;stroke-linecap:round;stroke-linejoin:round;stroke-miterlimit:10;stroke-dasharray:none;stroke-opacity:1"
             d="M 0,2540000 C 41475.49,2057451 69125.48,1451361 124427.5,1092353 179728.4,733343.8 228117.7,531085.7 331807.9,385950.6 435497.1,240814.4 539186.3,252159.7 746566.8,221536.7 953831.2,190929.8 1161555,219067.2 1576085,202210 1990844,185342.8 2405604,154037.9 3235124,120336.6 4064643,86634.26 5447175,40111.53 6553200,0" /></g></g></g><g
       id="g78"><g
         clip-path="url(#clipPath84)"
         id="g80"><path
           id="path86"
           style="fill:#4472c4;fill-opacity:1;fill-rule:nonzero;stroke:none"
           d="m 67.5,121.5 c 0,-1.1046 -0.89543,-2 -2,-2 -1.10457,0 -2,0.8954 -2,2 0,1.1046 0.89543,2 2,2 1.10457,0 2,-0.8954 2,-2 z" /><g
           transform="matrix(7.874016e-5,0,0,-7.874016e-5,63,124)"
           id="g88"><path
             id="path90"
             style="fill:none;stroke:#4472c4;stroke-width:9525;stroke-linecap:butt;stroke-linejoin:round;stroke-miterlimit:10;stroke-dasharray:none;stroke-opacity:1"
             d="M 57150,31750 C 57150,45778.03 45778.03,57150 31750,57150 17721.97,57150 6350,45778.03 6350,31750 6350,17721.97 17721.97,6350 31750,6350 c 14028.03,0 25400,11371.97 25400,25400 z" /></g><path
           id="path92"
           style="fill:#4472c4;fill-opacity:1;fill-rule:nonzero;stroke:none"
           d="m 77.5,235.5 c 0,-1.1046 -0.89543,-2 -2,-2 -1.10457,0 -2,0.8954 -2,2 0,1.1046 0.89543,2 2,2 1.10457,0 2,-0.8954 2,-2 z" /><g
           transform="matrix(7.874016e-5,0,0,-7.874016e-5,73,238)"
           id="g94"><path
             id="path96"
             style="fill:none;stroke:#4472c4;stroke-width:9525;stroke-linecap:butt;stroke-linejoin:round;stroke-miterlimit:10;stroke-dasharray:none;stroke-opacity:1"
             d="M 57150,31750 C 57150,45778.03 45778.03,57150 31750,57150 17721.97,57150 6350,45778.03 6350,31750 6350,17721.97 17721.97,6350 31750,6350 c 14028.03,0 25400,11371.97 25400,25400 z" /></g><path
           id="path98"
           style="fill:#4472c4;fill-opacity:1;fill-rule:nonzero;stroke:none"
           d="m 93.5,290.5 c 0,-1.1046 -0.89543,-2 -2,-2 -1.10457,0 -2,0.8954 -2,2 0,1.1046 0.89543,2 2,2 1.10457,0 2,-0.8954 2,-2 z" /><g
           transform="matrix(7.874016e-5,0,0,-7.874016e-5,89,293)"
           id="g100"><path
             id="path102"
             style="fill:none;stroke:#4472c4;stroke-width:9525;stroke-linecap:butt;stroke-linejoin:round;stroke-miterlimit:10;stroke-dasharray:none;stroke-opacity:1"
             d="M 57150,31750 C 57150,45778.03 45778.03,57150 31750,57150 17721.97,57150 6350,45778.03 6350,31750 6350,17721.97 17721.97,6350 31750,6350 c 14028.03,0 25400,11371.97 25400,25400 z" /></g><path
           id="path104"
           style="fill:#4472c4;fill-opacity:1;fill-rule:nonzero;stroke:none"
           d="m 126.5,303.5 c 0,-1.1046 -0.8954,-2 -2,-2 -1.1046,0 -2,0.8954 -2,2 0,1.1046 0.8954,2 2,2 1.1046,0 2,-0.8954 2,-2 z" /><g
           transform="matrix(7.874016e-5,0,0,-7.874016e-5,122,306)"
           id="g106"><path
             id="path108"
             style="fill:none;stroke:#4472c4;stroke-width:9525;stroke-linecap:butt;stroke-linejoin:round;stroke-miterlimit:10;stroke-dasharray:none;stroke-opacity:1"
             d="M 57150,31750 C 57150,45778.03 45778.03,57150 31750,57150 17721.97,57150 6350,45778.03 6350,31750 6350,17721.97 17721.97,6350 31750,6350 c 14028.03,0 25400,11371.97 25400,25400 z" /></g><path
           id="path110"
           style="fill:#4472c4;fill-opacity:1;fill-rule:nonzero;stroke:none"
           d="m 191.5,305.5 c 0,-1.1046 -0.8954,-2 -2,-2 -1.1046,0 -2,0.8954 -2,2 0,1.1046 0.8954,2 2,2 1.1046,0 2,-0.8954 2,-2 z" /><g
           transform="matrix(7.874016e-5,0,0,-7.874016e-5,187,308)"
           id="g112"><path
             id="path114"
             style="fill:none;stroke:#4472c4;stroke-width:9525;stroke-linecap:butt;stroke-linejoin:round;stroke-miterlimit:10;stroke-dasharray:none;stroke-opacity:1"
             d="M 57150,31750 C 57150,45778.03 45778.03,57150 31750,57150 17721.97,57150 6350,45778.03 6350,31750 6350,17721.97 17721.97,6350 31750,6350 c 14028.03,0 25400,11371.97 25400,25400 z" /></g><path
           id="path116"
           style="fill:#4472c4;fill-opacity:1;fill-rule:nonzero;stroke:none"
           d="m 321.5,311.5 c 0,-1.1046 -0.8954,-2 -2,-2 -1.1046,0 -2,0.8954 -2,2 0,1.1046 0.8954,2 2,2 1.1046,0 2,-0.8954 2,-2 z" /><g
           transform="matrix(7.874016e-5,0,0,-7.874016e-5,317,314)"
           id="g118"><path
             id="path120"
             style="fill:none;stroke:#4472c4;stroke-width:9525;stroke-linecap:butt;stroke-linejoin:round;stroke-miterlimit:10;stroke-dasharray:none;stroke-opacity:1"
             d="M 57150,31750 C 57150,45778.03 45778.03,57150 31750,57150 17721.97,57150 6350,45778.03 6350,31750 6350,17721.97 17721.97,6350 31750,6350 c 14028.03,0 25400,11371.97 25400,25400 z" /></g><path
           id="path122"
           style="fill:#4472c4;fill-opacity:1;fill-rule:nonzero;stroke:none"
           d="m 583.5,321.5 c 0,-1.1046 -0.8954,-2 -2,-2 -1.1046,0 -2,0.8954 -2,2 0,1.1046 0.8954,2 2,2 1.1046,0 2,-0.8954 2,-2 z" /><g
           transform="matrix(7.874016e-5,0,0,-7.874016e-5,579,324)"
           id="g124"><path
             id="path126"
             style="fill:none;stroke:#4472c4;stroke-width:9525;stroke-linecap:butt;stroke-linejoin:round;stroke-miterlimit:10;stroke-dasharray:none;stroke-opacity:1"
             d="M 57150,31750 C 57150,45778.03 45778.03,57150 31750,57150 17721.97,57150 6350,45778.03 6350,31750 6350,17721.97 17721.97,6350 31750,6350 c 14028.03,0 25400,11371.97 25400,25400 z" /></g></g></g><g
       id="g128"><g
         clip-path="url(#clipPath134)"
         id="g130"><g
           transform="matrix(7.874016e-5,0,0,-7.874016e-5,66,267)"
           id="g136"><path
             id="path138"
             style="fill:none;stroke:#70ad47;stroke-width:19050;stroke-linecap:round;stroke-linejoin:round;stroke-miterlimit:10;stroke-dasharray:none;stroke-opacity:1"
             d="M 0,1854200 C 41475.49,1410616 69125.48,753374.1 124427.5,523447.9 c 24836.2,-103265.3 160810.6,-49399 207380.4,-48809.8 103689.2,1311 207378.4,62157 414758.9,56676.8 207379.4,-5481.3 414759.2,-84998.2 829518.2,-89563.3 413417,-4551.1 832205,135559.6 1659039,62173 C 4064643,430298.7 5447175,167974.5 6553200,0" /></g></g></g><g
       id="g140"><g
         clip-path="url(#clipPath146)"
         id="g142"><path
           id="path148"
           style="fill:#70ad47;fill-opacity:1;fill-rule:nonzero;stroke:none"
           d="m 68,121 c 0,-1.1046 -0.89543,-2 -2,-2 -1.10457,0 -2,0.8954 -2,2 0,1.1046 0.89543,2 2,2 1.10457,0 2,-0.8954 2,-2 z" /><g
           transform="matrix(7.874016e-5,0,0,-7.874016e-5,63.5,123.5)"
           id="g150"><path
             id="path152"
             style="fill:none;stroke:#70ad47;stroke-width:9525;stroke-linecap:butt;stroke-linejoin:round;stroke-miterlimit:10;stroke-dasharray:none;stroke-opacity:1"
             d="M 57150,31750 C 57150,45778.03 45778.03,57150 31750,57150 17721.97,57150 6350,45778.03 6350,31750 6350,17721.97 17721.97,6350 31750,6350 c 14028.03,0 25400,11371.97 25400,25400 z" /></g></g></g><g
       id="g154"><g
         clip-path="url(#clipPath160)"
         id="g156"><path
           id="path162"
           style="fill:#70ad47;fill-opacity:1;fill-rule:nonzero;stroke:none"
           d="m 78,226 c 0,-1.1046 -0.89543,-2 -2,-2 -1.10457,0 -2,0.8954 -2,2 0,1.1046 0.89543,2 2,2 1.10457,0 2,-0.8954 2,-2 z" /><g
           transform="matrix(7.874016e-5,0,0,-7.874016e-5,73.5,228.5)"
           id="g164"><path
             id="path166"
             style="fill:none;stroke:#70ad47;stroke-width:9525;stroke-linecap:butt;stroke-linejoin:round;stroke-miterlimit:10;stroke-dasharray:none;stroke-opacity:1"
             d="M 57150,31750 C 57150,45778.03 45778.03,57150 31750,57150 17721.97,57150 6350,45778.03 6350,31750 6350,17721.97 17721.97,6350 31750,6350 c 14028.03,0 25400,11371.97 25400,25400 z" /></g></g></g><g
       id="g168"><g
         clip-path="url(#clipPath174)"
         id="g170"><path
           id="path176"
           style="fill:#70ad47;fill-opacity:1;fill-rule:nonzero;stroke:none"
           d="m 94,230 c 0,-1.1046 -0.89543,-2 -2,-2 -1.10457,0 -2,0.8954 -2,2 0,1.1046 0.89543,2 2,2 1.10457,0 2,-0.8954 2,-2 z" /><g
           transform="matrix(7.874016e-5,0,0,-7.874016e-5,89.5,232.5)"
           id="g178"><path
             id="path180"
             style="fill:none;stroke:#70ad47;stroke-width:9525;stroke-linecap:butt;stroke-linejoin:round;stroke-miterlimit:10;stroke-dasharray:none;stroke-opacity:1"
             d="M 57150,31750 C 57150,45778.03 45778.03,57150 31750,57150 17721.97,57150 6350,45778.03 6350,31750 6350,17721.97 17721.97,6350 31750,6350 c 14028.03,0 25400,11371.97 25400,25400 z" /></g></g></g><g
       id="g182"><g
         clip-path="url(#clipPath188)"
         id="g184"><path
           id="path190"
           style="fill:#70ad47;fill-opacity:1;fill-rule:nonzero;stroke:none"
           d="m 127,226 c 0,-1.1046 -0.8954,-2 -2,-2 -1.1046,0 -2,0.8954 -2,2 0,1.1046 0.8954,2 2,2 1.1046,0 2,-0.8954 2,-2 z" /><g
           transform="matrix(7.874016e-5,0,0,-7.874016e-5,122.5,228.5)"
           id="g192"><path
             id="path194"
             style="fill:none;stroke:#70ad47;stroke-width:9525;stroke-linecap:butt;stroke-linejoin:round;stroke-miterlimit:10;stroke-dasharray:none;stroke-opacity:1"
             d="M 57150,31750 C 57150,45778.03 45778.03,57150 31750,57150 17721.97,57150 6350,45778.03 6350,31750 6350,17721.97 17721.97,6350 31750,6350 c 14028.03,0 25400,11371.97 25400,25400 z" /></g></g></g><g
       id="g196"><g
         clip-path="url(#clipPath202)"
         id="g198"><path
           id="path204"
           style="fill:#70ad47;fill-opacity:1;fill-rule:nonzero;stroke:none"
           d="m 192,233 c 0,-1.1046 -0.8954,-2 -2,-2 -1.1046,0 -2,0.8954 -2,2 0,1.1046 0.8954,2 2,2 1.1046,0 2,-0.8954 2,-2 z" /><g
           transform="matrix(7.874016e-5,0,0,-7.874016e-5,187.5,235.5)"
           id="g206"><path
             id="path208"
             style="fill:none;stroke:#70ad47;stroke-width:9525;stroke-linecap:butt;stroke-linejoin:round;stroke-miterlimit:10;stroke-dasharray:none;stroke-opacity:1"
             d="M 57150,31750 C 57150,45778.03 45778.03,57150 31750,57150 17721.97,57150 6350,45778.03 6350,31750 6350,17721.97 17721.97,6350 31750,6350 c 14028.03,0 25400,11371.97 25400,25400 z" /></g></g></g><g
       id="g210"><g
         clip-path="url(#clipPath216)"
         id="g212"><path
           id="path218"
           style="fill:#70ad47;fill-opacity:1;fill-rule:nonzero;stroke:none"
           d="m 322,228 c 0,-1.1046 -0.8954,-2 -2,-2 -1.1046,0 -2,0.8954 -2,2 0,1.1046 0.8954,2 2,2 1.1046,0 2,-0.8954 2,-2 z" /><g
           transform="matrix(7.874016e-5,0,0,-7.874016e-5,317.5,230.5)"
           id="g220"><path
             id="path222"
             style="fill:none;stroke:#70ad47;stroke-width:9525;stroke-linecap:butt;stroke-linejoin:round;stroke-miterlimit:10;stroke-dasharray:none;stroke-opacity:1"
             d="M 57150,31750 C 57150,45778.03 45778.03,57150 31750,57150 17721.97,57150 6350,45778.03 6350,31750 6350,17721.97 17721.97,6350 31750,6350 c 14028.03,0 25400,11371.97 25400,25400 z" /></g></g></g><g
       id="g224"><g
         clip-path="url(#clipPath230)"
         id="g226"><path
           id="path232"
           style="fill:#4472c4;fill-opacity:1;fill-rule:nonzero;stroke:none"
           d="m 583.5,268.5 c 0,-1.1046 -0.8954,-2 -2,-2 -1.1046,0 -2,0.8954 -2,2 0,1.1046 0.8954,2 2,2 1.1046,0 2,-0.8954 2,-2 z" /><g
           transform="matrix(7.874016e-5,0,0,-7.874016e-5,579,271)"
           id="g234"><path
             id="path236"
             style="fill:none;stroke:#4472c4;stroke-width:9525;stroke-linecap:butt;stroke-linejoin:round;stroke-miterlimit:10;stroke-dasharray:none;stroke-opacity:1"
             d="M 57150,31750 C 57150,45778.03 45778.03,57150 31750,57150 17721.97,57150 6350,45778.03 6350,31750 6350,17721.97 17721.97,6350 31750,6350 c 14028.03,0 25400,11371.97 25400,25400 z" /></g></g></g><g
       id="g238"><g
         clip-path="url(#clipPath244)"
         id="g240"><g
           transform="translate(47.02016,-338)"
           id="g246"><text
             id="text250"
             style="font-variant:normal;font-weight:normal;font-size:9px;font-family:ArialMT;-inkscape-font-specification:ArialMT;writing-mode:lr-tb;fill:#595959;fill-opacity:1;fill-rule:nonzero;stroke:none"
             transform="matrix(1,0,0,-1,0,379)"><tspan
               id="tspan248"
               y="0"
               x="0">0</tspan></text>
</g></g></g><g
       id="g252"><g
         clip-path="url(#clipPath258)"
         id="g254"><g
           transform="translate(32.00504,-301)"
           id="g260"><text
             id="text264"
             style="font-variant:normal;font-weight:normal;font-size:9px;font-family:ArialMT;-inkscape-font-specification:ArialMT;writing-mode:lr-tb;fill:#595959;fill-opacity:1;fill-rule:nonzero;stroke:none"
             transform="matrix(1,0,0,-1,0,379)"><tspan
               id="tspan262"
               y="0"
               x="0 5.0004001 10.0008 15.0012">5000</tspan></text>
</g></g></g><g
       id="g266"><g
         clip-path="url(#clipPath272)"
         id="g268"><g
           transform="translate(27,-263)"
           id="g274"><text
             id="text278"
             style="font-variant:normal;font-weight:normal;font-size:9px;font-family:ArialMT;-inkscape-font-specification:ArialMT;writing-mode:lr-tb;fill:#595959;fill-opacity:1;fill-rule:nonzero;stroke:none"
             transform="matrix(1,0,0,-1,0,379)"><tspan
               id="tspan276"
               y="0"
               x="0 5.0004001 10.0008 15.0012 20.0016">10000</tspan></text>
</g></g></g><g
       id="g280"><g
         clip-path="url(#clipPath286)"
         id="g282"><g
           transform="translate(27,-226)"
           id="g288"><text
             id="text292"
             style="font-variant:normal;font-weight:normal;font-size:9px;font-family:ArialMT;-inkscape-font-specification:ArialMT;writing-mode:lr-tb;fill:#595959;fill-opacity:1;fill-rule:nonzero;stroke:none"
             transform="matrix(1,0,0,-1,0,379)"><tspan
               id="tspan290"
               y="0"
               x="0 5.0004001 10.0008 15.0012 20.0016">15000</tspan></text>
</g></g></g><g
       id="g294"><g
         clip-path="url(#clipPath300)"
         id="g296"><g
           transform="translate(27,-188)"
           id="g302"><text
             id="text306"
             style="font-variant:normal;font-weight:normal;font-size:9px;font-family:ArialMT;-inkscape-font-specification:ArialMT;writing-mode:lr-tb;fill:#595959;fill-opacity:1;fill-rule:nonzero;stroke:none"
             transform="matrix(1,0,0,-1,0,379)"><tspan
               id="tspan304"
               y="0"
               x="0 5.0004001 10.0008 15.0012 20.0016">20000</tspan></text>
</g></g></g><g
       id="g308"><g
         clip-path="url(#clipPath314)"
         id="g310"><g
           transform="translate(27,-151)"
           id="g316"><text
             id="text320"
             style="font-variant:normal;font-weight:normal;font-size:9px;font-family:ArialMT;-inkscape-font-specification:ArialMT;writing-mode:lr-tb;fill:#595959;fill-opacity:1;fill-rule:nonzero;stroke:none"
             transform="matrix(1,0,0,-1,0,379)"><tspan
               id="tspan318"
               y="0"
               x="0 5.0004001 10.0008 15.0012 20.0016">25000</tspan></text>
</g></g></g><g
       id="g322"><g
         clip-path="url(#clipPath328)"
         id="g324"><g
           transform="translate(27,-113)"
           id="g330"><text
             id="text334"
             style="font-variant:normal;font-weight:normal;font-size:9px;font-family:ArialMT;-inkscape-font-specification:ArialMT;writing-mode:lr-tb;fill:#595959;fill-opacity:1;fill-rule:nonzero;stroke:none"
             transform="matrix(1,0,0,-1,0,379)"><tspan
               id="tspan332"
               y="0"
               x="0 5.0004001 10.0008 15.0012 20.0016">30000</tspan></text>
</g></g></g><g
       id="g336"><g
         clip-path="url(#clipPath342)"
         id="g338"><g
           transform="translate(27,-76)"
           id="g344"><text
             id="text348"
             style="font-variant:normal;font-weight:normal;font-size:9px;font-family:ArialMT;-inkscape-font-specification:ArialMT;writing-mode:lr-tb;fill:#595959;fill-opacity:1;fill-rule:nonzero;stroke:none"
             transform="matrix(1,0,0,-1,0,379)"><tspan
               id="tspan346"
               y="0"
               x="0 5.0004001 10.0008 15.0012 20.0016">35000</tspan></text>
</g></g></g><g
       id="g350"><g
         clip-path="url(#clipPath356)"
         id="g352"><g
           transform="translate(27,-39)"
           id="g358"><text
             id="text362"
             style="font-variant:normal;font-weight:normal;font-size:9px;font-family:ArialMT;-inkscape-font-specification:ArialMT;writing-mode:lr-tb;fill:#595959;fill-opacity:1;fill-rule:nonzero;stroke:none"
             transform="matrix(1,0,0,-1,0,379)"><tspan
               id="tspan360"
               y="0"
               x="0 5.0004001 10.0008 15.0012 20.0016">40000</tspan></text>
</g></g></g><g
       id="g364"><g
         clip-path="url(#clipPath370)"
         id="g366"><g
           transform="translate(57.26268,-349)"
           id="g372"><text
             id="text376"
             style="font-variant:normal;font-weight:normal;font-size:9px;font-family:ArialMT;-inkscape-font-specification:ArialMT;writing-mode:lr-tb;fill:#595959;fill-opacity:1;fill-rule:nonzero;stroke:none"
             transform="matrix(1,0,0,-1,0,379)"><tspan
               id="tspan374"
               y="0"
               x="0">0</tspan></text>
</g></g></g><g
       id="g378"><g
         clip-path="url(#clipPath384)"
         id="g380"><g
           transform="translate(115.055,-349)"
           id="g386"><text
             id="text390"
             style="font-variant:normal;font-weight:normal;font-size:9px;font-family:ArialMT;-inkscape-font-specification:ArialMT;writing-mode:lr-tb;fill:#595959;fill-opacity:1;fill-rule:nonzero;stroke:none"
             transform="matrix(1,0,0,-1,0,379)"><tspan
               id="tspan388"
               y="0"
               x="0 5.0004001 10.0008 15.0012">1000</tspan></text>
</g></g></g><g
       id="g392"><g
         clip-path="url(#clipPath398)"
         id="g394"><g
           transform="translate(180.355,-349)"
           id="g400"><text
             id="text404"
             style="font-variant:normal;font-weight:normal;font-size:9px;font-family:ArialMT;-inkscape-font-specification:ArialMT;writing-mode:lr-tb;fill:#595959;fill-opacity:1;fill-rule:nonzero;stroke:none"
             transform="matrix(1,0,0,-1,0,379)"><tspan
               id="tspan402"
               y="0"
               x="0 5.0004001 10.0008 15.0012">2000</tspan></text>
</g></g></g><g
       id="g406"><g
         clip-path="url(#clipPath412)"
         id="g408"><g
           transform="translate(245.655,-349)"
           id="g414"><text
             id="text418"
             style="font-variant:normal;font-weight:normal;font-size:9px;font-family:ArialMT;-inkscape-font-specification:ArialMT;writing-mode:lr-tb;fill:#595959;fill-opacity:1;fill-rule:nonzero;stroke:none"
             transform="matrix(1,0,0,-1,0,379)"><tspan
               id="tspan416"
               y="0"
               x="0 5.0004001 10.0008 15.0012">3000</tspan></text>
</g></g></g><g
       id="g420"><g
         clip-path="url(#clipPath426)"
         id="g422"><g
           transform="translate(310.9549,-349)"
           id="g428"><text
             id="text432"
             style="font-variant:normal;font-weight:normal;font-size:9px;font-family:ArialMT;-inkscape-font-specification:ArialMT;writing-mode:lr-tb;fill:#595959;fill-opacity:1;fill-rule:nonzero;stroke:none"
             transform="matrix(1,0,0,-1,0,379)"><tspan
               id="tspan430"
               y="0"
               x="0 5.0004001 10.0008 15.0012">4000</tspan></text>
</g></g></g><g
       id="g434"><g
         clip-path="url(#clipPath440)"
         id="g436"><g
           transform="translate(376.2548,-349)"
           id="g442"><text
             id="text446"
             style="font-variant:normal;font-weight:normal;font-size:9px;font-family:ArialMT;-inkscape-font-specification:ArialMT;writing-mode:lr-tb;fill:#595959;fill-opacity:1;fill-rule:nonzero;stroke:none"
             transform="matrix(1,0,0,-1,0,379)"><tspan
               id="tspan444"
               y="0"
               x="0 5.0004001 10.0008 15.0012">5000</tspan></text>
</g></g></g><g
       id="g448"><g
         clip-path="url(#clipPath454)"
         id="g450"><g
           transform="translate(441.5547,-349)"
           id="g456"><text
             id="text460"
             style="font-variant:normal;font-weight:normal;font-size:9px;font-family:ArialMT;-inkscape-font-specification:ArialMT;writing-mode:lr-tb;fill:#595959;fill-opacity:1;fill-rule:nonzero;stroke:none"
             transform="matrix(1,0,0,-1,0,379)"><tspan
               id="tspan458"
               y="0"
               x="0 5.0004001 10.0008 15.0012">6000</tspan></text>
</g></g></g><g
       id="g462"><g
         clip-path="url(#clipPath468)"
         id="g464"><g
           transform="translate(506.8547,-349)"
           id="g470"><text
             id="text474"
             style="font-variant:normal;font-weight:normal;font-size:9px;font-family:ArialMT;-inkscape-font-specification:ArialMT;writing-mode:lr-tb;fill:#595959;fill-opacity:1;fill-rule:nonzero;stroke:none"
             transform="matrix(1,0,0,-1,0,379)"><tspan
               id="tspan472"
               y="0"
               x="0 5.0004001 10.0008 15.0012">7000</tspan></text>
</g></g></g><g
       id="g476"><g
         clip-path="url(#clipPath482)"
         id="g478"><g
           transform="translate(572.1547,-349)"
           id="g484"><text
             id="text488"
             style="font-variant:normal;font-weight:normal;font-size:9px;font-family:ArialMT;-inkscape-font-specification:ArialMT;writing-mode:lr-tb;fill:#595959;fill-opacity:1;fill-rule:nonzero;stroke:none"
             transform="matrix(1,0,0,-1,0,379)"><tspan
               id="tspan486"
               y="0"
               x="0 5.0004001 10.0008 15.0012">8000</tspan></text>
</g></g></g><g
       id="g490"><g
         clip-path="url(#clipPath496)"
         id="g492"><g
           transform="translate(637.4546,-349)"
           id="g498"><text
             id="text502"
             style="font-variant:normal;font-weight:normal;font-size:9px;font-family:ArialMT;-inkscape-font-specification:ArialMT;writing-mode:lr-tb;fill:#595959;fill-opacity:1;fill-rule:nonzero;stroke:none"
             transform="matrix(1,0,0,-1,0,379)"><tspan
               id="tspan500"
               y="0"
               x="0 5.0004001 10.0008 15.0012">9000</tspan></text>
</g></g></g><g
       id="g504"><g
         clip-path="url(#clipPath510)"
         id="g506"><g
           transform="rotate(90,124.25,276.25)"
           id="g512"><text
             id="text516"
             style="font-variant:normal;font-weight:normal;font-size:10px;font-family:ArialMT;-inkscape-font-specification:ArialMT;writing-mode:lr-tb;fill:#595959;fill-opacity:1;fill-rule:nonzero;stroke:none"
             transform="matrix(1,0,0,-1,0,379)"><tspan
               id="tspan514"
               y="0"
               x="0 6.1100001 11.67 15 20.559999 26.120001 31.68 37.240002 42.799999 48.360001 51.139999 53.919998 57.25 60.580002 66.139999 71.699997 74.480003 79.480003">Throughput (req/s)</tspan></text>
</g></g></g><g
       id="g518"><g
         clip-path="url(#clipPath524)"
         id="g520"><g
           transform="translate(280.5349,-363)"
           id="g526"><text
             id="text530"
             style="font-variant:normal;font-weight:normal;font-size:10px;font-family:ArialMT;-inkscape-font-specification:ArialMT;writing-mode:lr-tb;fill:#595959;fill-opacity:1;fill-rule:nonzero;stroke:none"
             transform="matrix(1,0,0,-1,0,379)"><tspan
               id="tspan528"
               y="0"
               x="0 7.2199998 12.78 18.34 23.34 28.9 32.23 35.560001 41.119999 46.68 51.68 56.68 59.459999 65.019997 70.580002 75.580002 81.139999 83.360001 86.139999 89.470001 94.470001 100.03 105.59 111.15 116.71 121.71 124.49 126.71 132.27 137.83 142.83">Concurrency Level (connections)</tspan></text>
</g></g></g><g
       id="g532"><g
         clip-path="url(#clipPath538)"
         id="g534"><g
           transform="translate(197.51,-20)"
           id="g540"><text
             id="text544"
             style="font-variant:normal;font-weight:normal;font-size:14px;font-family:ArialMT;-inkscape-font-specification:ArialMT;writing-mode:lr-tb;fill:#595959;fill-opacity:1;fill-rule:nonzero;stroke:none"
             transform="matrix(1,0,0,-1,0,379)"><tspan
               id="tspan542"
               y="0"
               x="0 8.5497999 16.335199 20.9958 28.7812 36.566601 44.352001 52.137402 59.922798 67.708199 71.598801 75.489403 79.379997 87.165398 91.825996 95.716599 103.502 111.2874 122.948 129.948 133.83859 138.49921 146.28461 154.07001 161.85539 169.64079 176.64079 180.5314 187.5314">Throughput for 10ms requests </tspan></text>
</g></g></g><g
       id="g546"><g
         clip-path="url(#clipPath552)"
         id="g548"><g
           transform="translate(388.92,-20)"
           id="g554"><text
             id="text558"
             style="font-variant:normal;font-weight:normal;font-size:14px;font-family:ArialMT;-inkscape-font-specification:ArialMT;writing-mode:lr-tb;fill:#595959;fill-opacity:1;fill-rule:nonzero;stroke:none"
             transform="matrix(1,0,0,-1,0,379)"><tspan
               id="tspan556"
               y="0"
               x="0">—</tspan></text>
</g></g></g><g
       id="g560"><g
         clip-path="url(#clipPath566)"
         id="g562"><g
           transform="translate(406.81,-20)"
           id="g568"><text
             id="text572"
             style="font-variant:normal;font-weight:normal;font-size:14px;font-family:ArialMT;-inkscape-font-specification:ArialMT;writing-mode:lr-tb;fill:#595959;fill-opacity:1;fill-rule:nonzero;stroke:none"
             transform="matrix(1,0,0,-1,0,379)"><tspan
               id="tspan570"
               y="0"
               x="0 7 10.1094 14.77 18.660601 26.445999 34.2314 37.340801 41.2314 49.0168 56.8022 64.587601 68.478203 75.478203 83.263603 87.924202 95.709602 103.495 106.6044 110.495 114.3856 122.171 126.8316 134.617 142.4024 150.18781 157.18781">virtual and kernel threads </tspan></text>
</g></g></g><g
       id="g574"><g
         clip-path="url(#clipPath580)"
         id="g576"><g
           transform="matrix(7.874016e-5,0,0,-7.874016e-5,673,185)"
           id="g582"><path
             id="path584"
             style="fill:none;stroke:#4472c4;stroke-width:19050;stroke-linecap:round;stroke-linejoin:round;stroke-miterlimit:10;stroke-dasharray:none;stroke-opacity:1"
             d="M 0,0 241300,1" /></g></g></g><g
       id="g586"><g
         clip-path="url(#clipPath592)"
         id="g588"><path
           id="path594"
           style="fill:#4472c4;fill-opacity:1;fill-rule:nonzero;stroke:none"
           d="m 684,186 c 0,-1.1046 -0.8954,-2 -2,-2 -1.1046,0 -2,0.8954 -2,2 0,1.1046 0.8954,2 2,2 1.1046,0 2,-0.8954 2,-2 z" /><g
           transform="matrix(7.874016e-5,0,0,-7.874016e-5,679.5,188.5)"
           id="g596"><path
             id="path598"
             style="fill:none;stroke:#4472c4;stroke-width:9525;stroke-linecap:butt;stroke-linejoin:round;stroke-miterlimit:10;stroke-dasharray:none;stroke-opacity:1"
             d="M 57150,31750 C 57150,45778.03 45778.03,57150 31750,57150 17721.97,57150 6350,45778.03 6350,31750 6350,17721.97 17721.97,6350 31750,6350 c 14028.03,0 25400,11371.97 25400,25400 z" /></g></g></g><g
       id="g600"><g
         clip-path="url(#clipPath606)"
         id="g602"><g
           transform="translate(694.3496,-196)"
           id="g608"><text
             id="text612"
             style="font-variant:normal;font-weight:normal;font-size:9px;font-family:ArialMT;-inkscape-font-specification:ArialMT;writing-mode:lr-tb;fill:#595959;fill-opacity:1;fill-rule:nonzero;stroke:none"
             transform="matrix(1,0,0,-1,0,379)"><tspan
               id="tspan610"
               y="0"
               x="0 5.0004001 7.0037999 9.0072002 12.0096 17.01 22.010401 24.0138 27.016199 29.0196 34.02 37.0224 42.0228 47.023201 52.023602">virtual threads</tspan></text>
</g></g></g><g
       id="g614"><g
         clip-path="url(#clipPath620)"
         id="g616"><g
           transform="matrix(7.874016e-5,0,0,-7.874016e-5,673,169)"
           id="g622"><path
             id="path624"
             style="fill:none;stroke:#70ad47;stroke-width:19050;stroke-linecap:round;stroke-linejoin:round;stroke-miterlimit:10;stroke-dasharray:none;stroke-opacity:1"
             d="M 0,0 241300,1" /></g></g></g><g
       id="g626"><g
         clip-path="url(#clipPath632)"
         id="g628"><path
           id="path634"
           style="fill:#4472c4;fill-opacity:1;fill-rule:nonzero;stroke:none"
           d="m 684,170 c 0,-1.1046 -0.8954,-2 -2,-2 -1.1046,0 -2,0.8954 -2,2 0,1.1046 0.8954,2 2,2 1.1046,0 2,-0.8954 2,-2 z" /><g
           transform="matrix(7.874016e-5,0,0,-7.874016e-5,679.5,172.5)"
           id="g636"><path
             id="path638"
             style="fill:none;stroke:#4472c4;stroke-width:9525;stroke-linecap:butt;stroke-linejoin:round;stroke-miterlimit:10;stroke-dasharray:none;stroke-opacity:1"
             d="M 57150,31750 C 57150,45778.03 45778.03,57150 31750,57150 17721.97,57150 6350,45778.03 6350,31750 6350,17721.97 17721.97,6350 31750,6350 c 14028.03,0 25400,11371.97 25400,25400 z" /></g></g></g><g
       id="g640"><g
         clip-path="url(#clipPath646)"
         id="g642"><g
           transform="translate(694.3496,-212)"
           id="g648"><text
             id="text652"
             style="font-variant:normal;font-weight:normal;font-size:9px;font-family:ArialMT;-inkscape-font-specification:ArialMT;writing-mode:lr-tb;fill:#595959;fill-opacity:1;fill-rule:nonzero;stroke:none"
             transform="matrix(1,0,0,-1,0,379)"><tspan
               id="tspan650"
               y="0"
               x="0 5.0004001 10.0008 13.0032 18.003599 23.004 25.007401 27.010799 30.013201 35.013599 38.015999 43.016399 48.0168 53.0172">kernel threads</tspan></text>
</g></g></g><g
       id="g654"><g
         transform="matrix(7.874016e-5,0,0,-7.874016e-5,0.5,378.5)"
         id="g656"><path
           id="path658"
           style="fill:none;stroke:#d9d9d9;stroke-width:9525;stroke-linecap:butt;stroke-linejoin:round;stroke-miterlimit:10;stroke-dasharray:none;stroke-opacity:1"
           d="M 0,0 H 9664700 V 4800600 H 0 Z" /></g></g></g></svg>