<?xml version="1.0" encoding="UTF-8" standalone="no"?>
<svg
   xmlns:dc="http://purl.org/dc/elements/1.1/"
   xmlns:cc="http://creativecommons.org/ns#"
   xmlns:rdf="http://www.w3.org/1999/02/22-rdf-syntax-ns#"
   xmlns:svg="http://www.w3.org/2000/svg"
   xmlns="http://www.w3.org/2000/svg"
   viewBox="0 0 1016 505.33334"
   height="505.33334"
   width="1016"
   xml:space="preserve"
   id="svg2"
   version="1.1"><metadata
     id="metadata8"><rdf:RDF><cc:Work
         rdf:about=""><dc:format>image/svg+xml</dc:format><dc:type
           rdf:resource="http://purl.org/dc/dcmitype/StillImage" /></cc:Work></rdf:RDF></metadata><defs
     id="defs6"><clipPath
       id="clipPath24"
       clipPathUnits="userSpaceOnUse"><path
         id="path22"
         d="M 0,1 H 761 V 379 H 0 Z" /></clipPath><clipPath
       id="clipPath36"
       clipPathUnits="userSpaceOnUse"><path
         id="path34"
         d="M 0,1 H 761 V 379 H 0 Z" /></clipPath><clipPath
       id="clipPath48"
       clipPathUnits="userSpaceOnUse"><path
         id="path46"
         d="M 0,1 H 761 V 379 H 0 Z" /></clipPath><clipPath
       id="clipPath60"
       clipPathUnits="userSpaceOnUse"><path
         id="path58"
         d="M 0,1 H 761 V 379 H 0 Z" /></clipPath><clipPath
       id="clipPath72"
       clipPathUnits="userSpaceOnUse"><path
         id="path70"
         d="M 49,43 H 648 V 343 H 49 Z" /></clipPath><clipPath
       id="clipPath84"
       clipPathUnits="userSpaceOnUse"><path
         id="path82"
         d="M 0,1 H 761 V 379 H 0 Z" /></clipPath><clipPath
       id="clipPath128"
       clipPathUnits="userSpaceOnUse"><path
         id="path126"
         d="M 49,43 H 648 V 343 H 49 Z" /></clipPath><clipPath
       id="clipPath140"
       clipPathUnits="userSpaceOnUse"><path
         id="path138"
         d="M 0,1 H 761 V 379 H 0 Z" /></clipPath><clipPath
       id="clipPath184"
       clipPathUnits="userSpaceOnUse"><path
         id="path182"
         d="M 0,1 H 761 V 379 H 0 Z" /></clipPath><clipPath
       id="clipPath198"
       clipPathUnits="userSpaceOnUse"><path
         id="path196"
         d="M 0,1 H 761 V 379 H 0 Z" /></clipPath><clipPath
       id="clipPath212"
       clipPathUnits="userSpaceOnUse"><path
         id="path210"
         d="M 0,1 H 761 V 379 H 0 Z" /></clipPath><clipPath
       id="clipPath226"
       clipPathUnits="userSpaceOnUse"><path
         id="path224"
         d="M 0,1 H 761 V 379 H 0 Z" /></clipPath><clipPath
       id="clipPath240"
       clipPathUnits="userSpaceOnUse"><path
         id="path238"
         d="M 0,1 H 761 V 379 H 0 Z" /></clipPath><clipPath
       id="clipPath254"
       clipPathUnits="userSpaceOnUse"><path
         id="path252"
         d="M 0,1 H 761 V 379 H 0 Z" /></clipPath><clipPath
       id="clipPath268"
       clipPathUnits="userSpaceOnUse"><path
         id="path266"
         d="M 0,1 H 761 V 379 H 0 Z" /></clipPath><clipPath
       id="clipPath282"
       clipPathUnits="userSpaceOnUse"><path
         id="path280"
         d="M 0,1 H 761 V 379 H 0 Z" /></clipPath><clipPath
       id="clipPath296"
       clipPathUnits="userSpaceOnUse"><path
         id="path294"
         d="M 0,1 H 761 V 379 H 0 Z" /></clipPath><clipPath
       id="clipPath310"
       clipPathUnits="userSpaceOnUse"><path
         id="path308"
         d="M 0,1 H 761 V 379 H 0 Z" /></clipPath><clipPath
       id="clipPath324"
       clipPathUnits="userSpaceOnUse"><path
         id="path322"
         d="M 0,1 H 761 V 379 H 0 Z" /></clipPath><clipPath
       id="clipPath338"
       clipPathUnits="userSpaceOnUse"><path
         id="path336"
         d="M 0,1 H 761 V 379 H 0 Z" /></clipPath><clipPath
       id="clipPath352"
       clipPathUnits="userSpaceOnUse"><path
         id="path350"
         d="M 0,1 H 761 V 379 H 0 Z" /></clipPath><clipPath
       id="clipPath366"
       clipPathUnits="userSpaceOnUse"><path
         id="path364"
         d="M 0,1 H 761 V 379 H 0 Z" /></clipPath><clipPath
       id="clipPath380"
       clipPathUnits="userSpaceOnUse"><path
         id="path378"
         d="M 0,1 H 761 V 379 H 0 Z" /></clipPath><clipPath
       id="clipPath394"
       clipPathUnits="userSpaceOnUse"><path
         id="path392"
         d="M 0,1 H 761 V 379 H 0 Z" /></clipPath><clipPath
       id="clipPath408"
       clipPathUnits="userSpaceOnUse"><path
         id="path406"
         d="M 0,1 H 761 V 379 H 0 Z" /></clipPath><clipPath
       id="clipPath422"
       clipPathUnits="userSpaceOnUse"><path
         id="path420"
         d="M 0,1 H 761 V 379 H 0 Z" /></clipPath><clipPath
       id="clipPath436"
       clipPathUnits="userSpaceOnUse"><path
         id="path434"
         d="M 0,1 H 761 V 379 H 0 Z" /></clipPath><clipPath
       id="clipPath450"
       clipPathUnits="userSpaceOnUse"><path
         id="path448"
         d="M 0,1 H 761 V 379 H 0 Z" /></clipPath><clipPath
       id="clipPath464"
       clipPathUnits="userSpaceOnUse"><path
         id="path462"
         d="M 0,1 H 761 V 379 H 0 Z" /></clipPath><clipPath
       id="clipPath478"
       clipPathUnits="userSpaceOnUse"><path
         id="path476"
         d="M 0,1 H 761 V 379 H 0 Z" /></clipPath><clipPath
       id="clipPath490"
       clipPathUnits="userSpaceOnUse"><path
         id="path488"
         d="M 0,1 H 761 V 379 H 0 Z" /></clipPath><clipPath
       id="clipPath504"
       clipPathUnits="userSpaceOnUse"><path
         id="path502"
         d="M 0,1 H 761 V 379 H 0 Z" /></clipPath><clipPath
       id="clipPath518"
       clipPathUnits="userSpaceOnUse"><path
         id="path516"
         d="M 0,1 H 761 V 379 H 0 Z" /></clipPath><clipPath
       id="clipPath530"
       clipPathUnits="userSpaceOnUse"><path
         id="path528"
         d="M 0,1 H 761 V 379 H 0 Z" /></clipPath><clipPath
       id="clipPath544"
       clipPathUnits="userSpaceOnUse"><path
         id="path542"
         d="M 0,1 H 761 V 379 H 0 Z" /></clipPath></defs><g
     transform="matrix(1.3333333,0,0,-1.3333333,0,505.33333)"
     id="g10"><g
       id="g12" /><g
       id="g14"><path
         id="path16"
         style="fill:#ffffff;fill-opacity:1;fill-rule:nonzero;stroke:none"
         d="M 0,379 H 761 V 0.9999944 H 0 Z" /></g><g
       id="g18"><g
         clip-path="url(#clipPath24)"
         id="g20"><g
           transform="matrix(7.874016e-5,0,0,-7.874016e-5,49.5,342.5)"
           id="g26"><path
             id="path28"
             style="fill:none;stroke:#d9d9d9;stroke-width:9525;stroke-linecap:butt;stroke-linejoin:round;stroke-miterlimit:10;stroke-dasharray:none;stroke-opacity:1"
             d="M 0,3035300 H 7594600 M 0,2273300 H 7594600 M 0,1511300 H 7594600 M 0,749300 H 7594600 M 0,0 h 7594600" /></g></g></g><g
       id="g30"><g
         clip-path="url(#clipPath36)"
         id="g32"><g
           transform="matrix(7.874016e-5,0,0,-7.874016e-5,49.5,342.5)"
           id="g38"><path
             id="path40"
             style="fill:none;stroke:#d9d9d9;stroke-width:9525;stroke-linecap:butt;stroke-linejoin:round;stroke-miterlimit:10;stroke-dasharray:none;stroke-opacity:1"
             d="M 850900,0 V 3797300 M 1689100,0 V 3797300 M 2527300,0 V 3797300 M 3378200,0 V 3797300 M 4216400,0 V 3797300 M 5067300,0 V 3797300 M 5905500,0 V 3797300 M 6756400,0 V 3797300 M 7594600,0 v 3797300" /></g></g></g><g
       id="g42"><g
         clip-path="url(#clipPath48)"
         id="g44"><g
           transform="matrix(7.874016e-5,0,0,7.874016e-5,49.5,43.5)"
           id="g50"><path
             id="path52"
             style="fill:none;stroke:#bfbfbf;stroke-width:9525;stroke-linecap:butt;stroke-linejoin:round;stroke-miterlimit:10;stroke-dasharray:none;stroke-opacity:1"
             d="M 0,0 1,3797300" /></g></g></g><g
       id="g54"><g
         clip-path="url(#clipPath60)"
         id="g56"><g
           transform="matrix(7.874016e-5,0,0,-7.874016e-5,49.5,43.5)"
           id="g62"><path
             id="path64"
             style="fill:none;stroke:#bfbfbf;stroke-width:9525;stroke-linecap:butt;stroke-linejoin:round;stroke-miterlimit:10;stroke-dasharray:none;stroke-opacity:1"
             d="M 0,0 7594600,1" /></g></g></g><g
       id="g66"><g
         clip-path="url(#clipPath72)"
         id="g68"><g
           transform="matrix(7.874016e-5,0,0,-7.874016e-5,63,305)"
           id="g74"><path
             id="path76"
             style="fill:none;stroke:#5b9bd5;stroke-width:19050;stroke-linecap:round;stroke-linejoin:round;stroke-miterlimit:10;stroke-dasharray:none;stroke-opacity:1"
             d="M 0,1803400 C 84340.16,1267161 140567.6,463588.1 253022.5,194682.8 334436.8,0 522074.3,174771.6 674728.3,189964 885580.7,210947.1 1096432,303559.6 1518138,320585.5 c 421705,17024.9 843411,-27454.4 1686821,-28469.2 843410,-1015.9 2249094,14919.1 3373641,22379.2" /></g></g></g><g
       id="g78"><g
         clip-path="url(#clipPath84)"
         id="g80"><path
           id="path86"
           style="fill:#5b9bd5;fill-opacity:1;fill-rule:nonzero;stroke:none"
           d="m 64.5,164.5 c 0,-1.1046 -0.89543,-2 -2,-2 -1.10457,0 -2,0.8954 -2,2 0,1.1046 0.89543,2 2,2 1.10457,0 2,-0.8954 2,-2 z" /><g
           transform="matrix(7.874016e-5,0,0,-7.874016e-5,60,167)"
           id="g88"><path
             id="path90"
             style="fill:none;stroke:#5b9bd5;stroke-width:9525;stroke-linecap:butt;stroke-linejoin:round;stroke-miterlimit:10;stroke-dasharray:none;stroke-opacity:1"
             d="M 57150,31750 C 57150,45778.03 45778.03,57150 31750,57150 17721.97,57150 6350,45778.03 6350,31750 6350,17721.97 17721.97,6350 31750,6350 c 14028.03,0 25400,11371.97 25400,25400 z" /></g><path
           id="path92"
           style="fill:#5b9bd5;fill-opacity:1;fill-rule:nonzero;stroke:none"
           d="m 83.5,290.5 c 0,-1.1046 -0.89543,-2 -2,-2 -1.10457,0 -2,0.8954 -2,2 0,1.1046 0.89543,2 2,2 1.10457,0 2,-0.8954 2,-2 z" /><g
           transform="matrix(7.874016e-5,0,0,-7.874016e-5,79,293)"
           id="g94"><path
             id="path96"
             style="fill:none;stroke:#5b9bd5;stroke-width:9525;stroke-linecap:butt;stroke-linejoin:round;stroke-miterlimit:10;stroke-dasharray:none;stroke-opacity:1"
             d="M 57150,31750 C 57150,45778.03 45778.03,57150 31750,57150 17721.97,57150 6350,45778.03 6350,31750 6350,17721.97 17721.97,6350 31750,6350 c 14028.03,0 25400,11371.97 25400,25400 z" /></g><path
           id="path98"
           style="fill:#5b9bd5;fill-opacity:1;fill-rule:nonzero;stroke:none"
           d="m 117.5,291.5 c 0,-1.1046 -0.8954,-2 -2,-2 -1.1046,0 -2,0.8954 -2,2 0,1.1046 0.8954,2 2,2 1.1046,0 2,-0.8954 2,-2 z" /><g
           transform="matrix(7.874016e-5,0,0,-7.874016e-5,113,294)"
           id="g100"><path
             id="path102"
             style="fill:none;stroke:#5b9bd5;stroke-width:9525;stroke-linecap:butt;stroke-linejoin:round;stroke-miterlimit:10;stroke-dasharray:none;stroke-opacity:1"
             d="M 57150,31750 C 57150,45778.03 45778.03,57150 31750,57150 17721.97,57150 6350,45778.03 6350,31750 6350,17721.97 17721.97,6350 31750,6350 c 14028.03,0 25400,11371.97 25400,25400 z" /></g><path
           id="path104"
           style="fill:#5b9bd5;fill-opacity:1;fill-rule:nonzero;stroke:none"
           d="m 183.5,281.5 c 0,-1.1046 -0.8954,-2 -2,-2 -1.1046,0 -2,0.8954 -2,2 0,1.1046 0.8954,2 2,2 1.1046,0 2,-0.8954 2,-2 z" /><g
           transform="matrix(7.874016e-5,0,0,-7.874016e-5,179,284)"
           id="g106"><path
             id="path108"
             style="fill:none;stroke:#5b9bd5;stroke-width:9525;stroke-linecap:butt;stroke-linejoin:round;stroke-miterlimit:10;stroke-dasharray:none;stroke-opacity:1"
             d="M 57150,31750 C 57150,45778.03 45778.03,57150 31750,57150 17721.97,57150 6350,45778.03 6350,31750 6350,17721.97 17721.97,6350 31750,6350 c 14028.03,0 25400,11371.97 25400,25400 z" /></g><path
           id="path110"
           style="fill:#5b9bd5;fill-opacity:1;fill-rule:nonzero;stroke:none"
           d="m 316.5,283.5 c 0,-1.1046 -0.8954,-2 -2,-2 -1.1046,0 -2,0.8954 -2,2 0,1.1046 0.8954,2 2,2 1.1046,0 2,-0.8954 2,-2 z" /><g
           transform="matrix(7.874016e-5,0,0,-7.874016e-5,312,286)"
           id="g112"><path
             id="path114"
             style="fill:none;stroke:#5b9bd5;stroke-width:9525;stroke-linecap:butt;stroke-linejoin:round;stroke-miterlimit:10;stroke-dasharray:none;stroke-opacity:1"
             d="M 57150,31750 C 57150,45778.03 45778.03,57150 31750,57150 17721.97,57150 6350,45778.03 6350,31750 6350,17721.97 17721.97,6350 31750,6350 c 14028.03,0 25400,11371.97 25400,25400 z" /></g><path
           id="path116"
           style="fill:#5b9bd5;fill-opacity:1;fill-rule:nonzero;stroke:none"
           d="m 582.5,281.5 c 0,-1.1046 -0.8954,-2 -2,-2 -1.1046,0 -2,0.8954 -2,2 0,1.1046 0.8954,2 2,2 1.1046,0 2,-0.8954 2,-2 z" /><g
           transform="matrix(7.874016e-5,0,0,-7.874016e-5,578,284)"
           id="g118"><path
             id="path120"
             style="fill:none;stroke:#5b9bd5;stroke-width:9525;stroke-linecap:butt;stroke-linejoin:round;stroke-miterlimit:10;stroke-dasharray:none;stroke-opacity:1"
             d="M 57150,31750 C 57150,45778.03 45778.03,57150 31750,57150 17721.97,57150 6350,45778.03 6350,31750 6350,17721.97 17721.97,6350 31750,6350 c 14028.03,0 25400,11371.97 25400,25400 z" /></g></g></g><g
       id="g122"><g
         clip-path="url(#clipPath128)"
         id="g124"><g
           transform="matrix(7.874016e-5,0,0,-7.874016e-5,63,312)"
           id="g130"><path
             id="path132"
             style="fill:none;stroke:#70ad47;stroke-width:19050;stroke-linecap:round;stroke-linejoin:round;stroke-miterlimit:10;stroke-dasharray:none;stroke-opacity:1"
             d="M 0,1917700 C 84340.16,1414505 140567.6,719649.4 253022.5,408115.5 347336.2,146835.6 497889.4,0 674728.3,48494.89 885580.7,106316.6 1096432,634484.3 1518138,755046.1 c 421675,120552.7 843471,3644.7 1686821,16819.3 843410,13174.6 2249094,41486.9 3373641,62230.4" /></g></g></g><g
       id="g134"><g
         clip-path="url(#clipPath140)"
         id="g136"><path
           id="path142"
           style="fill:#70ad47;fill-opacity:1;fill-rule:nonzero;stroke:none"
           d="m 64.5,162.5 c 0,-1.1046 -0.89543,-2 -2,-2 -1.10457,0 -2,0.8954 -2,2 0,1.1046 0.89543,2 2,2 1.10457,0 2,-0.8954 2,-2 z" /><g
           transform="matrix(7.874016e-5,0,0,-7.874016e-5,60,165)"
           id="g144"><path
             id="path146"
             style="fill:none;stroke:#70ad47;stroke-width:9525;stroke-linecap:butt;stroke-linejoin:round;stroke-miterlimit:10;stroke-dasharray:none;stroke-opacity:1"
             d="M 57150,31750 C 57150,45778.03 45778.03,57150 31750,57150 17721.97,57150 6350,45778.03 6350,31750 6350,17721.97 17721.97,6350 31750,6350 c 14028.03,0 25400,11371.97 25400,25400 z" /></g><path
           id="path148"
           style="fill:#70ad47;fill-opacity:1;fill-rule:nonzero;stroke:none"
           d="m 83.5,280.5 c 0,-1.1046 -0.89543,-2 -2,-2 -1.10457,0 -2,0.8954 -2,2 0,1.1046 0.89543,2 2,2 1.10457,0 2,-0.8954 2,-2 z" /><g
           transform="matrix(7.874016e-5,0,0,-7.874016e-5,79,283)"
           id="g150"><path
             id="path152"
             style="fill:none;stroke:#70ad47;stroke-width:9525;stroke-linecap:butt;stroke-linejoin:round;stroke-miterlimit:10;stroke-dasharray:none;stroke-opacity:1"
             d="M 57150,31750 C 57150,45778.03 45778.03,57150 31750,57150 17721.97,57150 6350,45778.03 6350,31750 6350,17721.97 17721.97,6350 31750,6350 c 14028.03,0 25400,11371.97 25400,25400 z" /></g><path
           id="path154"
           style="fill:#70ad47;fill-opacity:1;fill-rule:nonzero;stroke:none"
           d="m 117.5,308.5 c 0,-1.1046 -0.8954,-2 -2,-2 -1.1046,0 -2,0.8954 -2,2 0,1.1046 0.8954,2 2,2 1.1046,0 2,-0.8954 2,-2 z" /><g
           transform="matrix(7.874016e-5,0,0,-7.874016e-5,113,311)"
           id="g156"><path
             id="path158"
             style="fill:none;stroke:#70ad47;stroke-width:9525;stroke-linecap:butt;stroke-linejoin:round;stroke-miterlimit:10;stroke-dasharray:none;stroke-opacity:1"
             d="M 57150,31750 C 57150,45778.03 45778.03,57150 31750,57150 17721.97,57150 6350,45778.03 6350,31750 6350,17721.97 17721.97,6350 31750,6350 c 14028.03,0 25400,11371.97 25400,25400 z" /></g><path
           id="path160"
           style="fill:#70ad47;fill-opacity:1;fill-rule:nonzero;stroke:none"
           d="m 183.5,253.5 c 0,-1.1046 -0.8954,-2 -2,-2 -1.1046,0 -2,0.8954 -2,2 0,1.1046 0.8954,2 2,2 1.1046,0 2,-0.8954 2,-2 z" /><g
           transform="matrix(7.874016e-5,0,0,-7.874016e-5,179,256)"
           id="g162"><path
             id="path164"
             style="fill:none;stroke:#70ad47;stroke-width:9525;stroke-linecap:butt;stroke-linejoin:round;stroke-miterlimit:10;stroke-dasharray:none;stroke-opacity:1"
             d="M 57150,31750 C 57150,45778.03 45778.03,57150 31750,57150 17721.97,57150 6350,45778.03 6350,31750 6350,17721.97 17721.97,6350 31750,6350 c 14028.03,0 25400,11371.97 25400,25400 z" /></g><path
           id="path166"
           style="fill:#70ad47;fill-opacity:1;fill-rule:nonzero;stroke:none"
           d="m 316.5,252.5 c 0,-1.1046 -0.8954,-2 -2,-2 -1.1046,0 -2,0.8954 -2,2 0,1.1046 0.8954,2 2,2 1.1046,0 2,-0.8954 2,-2 z" /><g
           transform="matrix(7.874016e-5,0,0,-7.874016e-5,312,255)"
           id="g168"><path
             id="path170"
             style="fill:none;stroke:#70ad47;stroke-width:9525;stroke-linecap:butt;stroke-linejoin:round;stroke-miterlimit:10;stroke-dasharray:none;stroke-opacity:1"
             d="M 57150,31750 C 57150,45778.03 45778.03,57150 31750,57150 17721.97,57150 6350,45778.03 6350,31750 6350,17721.97 17721.97,6350 31750,6350 c 14028.03,0 25400,11371.97 25400,25400 z" /></g><path
           id="path172"
           style="fill:#70ad47;fill-opacity:1;fill-rule:nonzero;stroke:none"
           d="m 582.5,247.5 c 0,-1.1046 -0.8954,-2 -2,-2 -1.1046,0 -2,0.8954 -2,2 0,1.1046 0.8954,2 2,2 1.1046,0 2,-0.8954 2,-2 z" /><g
           transform="matrix(7.874016e-5,0,0,-7.874016e-5,578,250)"
           id="g174"><path
             id="path176"
             style="fill:none;stroke:#70ad47;stroke-width:9525;stroke-linecap:butt;stroke-linejoin:round;stroke-miterlimit:10;stroke-dasharray:none;stroke-opacity:1"
             d="M 57150,31750 C 57150,45778.03 45778.03,57150 31750,57150 17721.97,57150 6350,45778.03 6350,31750 6350,17721.97 17721.97,6350 31750,6350 c 14028.03,0 25400,11371.97 25400,25400 z" /></g></g></g><g
       id="g178"><g
         clip-path="url(#clipPath184)"
         id="g180"><g
           transform="translate(37.00008,-338)"
           id="g186"><text
             id="text190"
             style="font-variant:normal;font-weight:normal;font-size:9px;font-family:ArialMT;-inkscape-font-specification:ArialMT;writing-mode:lr-tb;fill:#595959;fill-opacity:1;fill-rule:nonzero;stroke:none"
             transform="matrix(1,0,0,-1,0,379)"><tspan
               id="tspan188"
               y="0"
               x="0">0</tspan></text>
</g></g></g><g
       id="g192"><g
         clip-path="url(#clipPath198)"
         id="g194"><g
           transform="translate(31.99504,-278)"
           id="g200"><text
             id="text204"
             style="font-variant:normal;font-weight:normal;font-size:9px;font-family:ArialMT;-inkscape-font-specification:ArialMT;writing-mode:lr-tb;fill:#595959;fill-opacity:1;fill-rule:nonzero;stroke:none"
             transform="matrix(1,0,0,-1,0,379)"><tspan
               id="tspan202"
               y="0"
               x="0 5.0004001">50</tspan></text>
</g></g></g><g
       id="g206"><g
         clip-path="url(#clipPath212)"
         id="g208"><g
           transform="translate(26.99,-218)"
           id="g214"><text
             id="text218"
             style="font-variant:normal;font-weight:normal;font-size:9px;font-family:ArialMT;-inkscape-font-specification:ArialMT;writing-mode:lr-tb;fill:#595959;fill-opacity:1;fill-rule:nonzero;stroke:none"
             transform="matrix(1,0,0,-1,0,379)"><tspan
               id="tspan216"
               y="0"
               x="0 5.0004001 10.0008">100</tspan></text>
</g></g></g><g
       id="g220"><g
         clip-path="url(#clipPath226)"
         id="g222"><g
           transform="translate(26.99,-158)"
           id="g228"><text
             id="text232"
             style="font-variant:normal;font-weight:normal;font-size:9px;font-family:ArialMT;-inkscape-font-specification:ArialMT;writing-mode:lr-tb;fill:#595959;fill-opacity:1;fill-rule:nonzero;stroke:none"
             transform="matrix(1,0,0,-1,0,379)"><tspan
               id="tspan230"
               y="0"
               x="0 5.0004001 10.0008">150</tspan></text>
</g></g></g><g
       id="g234"><g
         clip-path="url(#clipPath240)"
         id="g236"><g
           transform="translate(26.99,-99)"
           id="g242"><text
             id="text246"
             style="font-variant:normal;font-weight:normal;font-size:9px;font-family:ArialMT;-inkscape-font-specification:ArialMT;writing-mode:lr-tb;fill:#595959;fill-opacity:1;fill-rule:nonzero;stroke:none"
             transform="matrix(1,0,0,-1,0,379)"><tspan
               id="tspan244"
               y="0"
               x="0 5.0004001 10.0008">200</tspan></text>
</g></g></g><g
       id="g248"><g
         clip-path="url(#clipPath254)"
         id="g250"><g
           transform="translate(26.99,-39)"
           id="g256"><text
             id="text260"
             style="font-variant:normal;font-weight:normal;font-size:9px;font-family:ArialMT;-inkscape-font-specification:ArialMT;writing-mode:lr-tb;fill:#595959;fill-opacity:1;fill-rule:nonzero;stroke:none"
             transform="matrix(1,0,0,-1,0,379)"><tspan
               id="tspan258"
               y="0"
               x="0 5.0004001 10.0008">250</tspan></text>
</g></g></g><g
       id="g262"><g
         clip-path="url(#clipPath268)"
         id="g264"><g
           transform="translate(47.2426,-349)"
           id="g270"><text
             id="text274"
             style="font-variant:normal;font-weight:normal;font-size:9px;font-family:ArialMT;-inkscape-font-specification:ArialMT;writing-mode:lr-tb;fill:#595959;fill-opacity:1;fill-rule:nonzero;stroke:none"
             transform="matrix(1,0,0,-1,0,379)"><tspan
               id="tspan272"
               y="0"
               x="0">0</tspan></text>
</g></g></g><g
       id="g276"><g
         clip-path="url(#clipPath282)"
         id="g278"><g
           transform="translate(108.6509,-349)"
           id="g284"><text
             id="text288"
             style="font-variant:normal;font-weight:normal;font-size:9px;font-family:ArialMT;-inkscape-font-specification:ArialMT;writing-mode:lr-tb;fill:#595959;fill-opacity:1;fill-rule:nonzero;stroke:none"
             transform="matrix(1,0,0,-1,0,379)"><tspan
               id="tspan286"
               y="0"
               x="0 5.0004001 10.0008">500</tspan></text>
</g></g></g><g
       id="g290"><g
         clip-path="url(#clipPath296)"
         id="g292"><g
           transform="translate(172.5616,-349)"
           id="g298"><text
             id="text302"
             style="font-variant:normal;font-weight:normal;font-size:9px;font-family:ArialMT;-inkscape-font-specification:ArialMT;writing-mode:lr-tb;fill:#595959;fill-opacity:1;fill-rule:nonzero;stroke:none"
             transform="matrix(1,0,0,-1,0,379)"><tspan
               id="tspan300"
               y="0"
               x="0 5.0004001 10.0008 15.0012">1000</tspan></text>
</g></g></g><g
       id="g304"><g
         clip-path="url(#clipPath310)"
         id="g306"><g
           transform="translate(238.9749,-349)"
           id="g312"><text
             id="text316"
             style="font-variant:normal;font-weight:normal;font-size:9px;font-family:ArialMT;-inkscape-font-specification:ArialMT;writing-mode:lr-tb;fill:#595959;fill-opacity:1;fill-rule:nonzero;stroke:none"
             transform="matrix(1,0,0,-1,0,379)"><tspan
               id="tspan314"
               y="0"
               x="0 5.0004001 10.0008 15.0012">1500</tspan></text>
</g></g></g><g
       id="g318"><g
         clip-path="url(#clipPath324)"
         id="g320"><g
           transform="translate(305.3882,-349)"
           id="g326"><text
             id="text330"
             style="font-variant:normal;font-weight:normal;font-size:9px;font-family:ArialMT;-inkscape-font-specification:ArialMT;writing-mode:lr-tb;fill:#595959;fill-opacity:1;fill-rule:nonzero;stroke:none"
             transform="matrix(1,0,0,-1,0,379)"><tspan
               id="tspan328"
               y="0"
               x="0 5.0004001 10.0008 15.0012">2000</tspan></text>
</g></g></g><g
       id="g332"><g
         clip-path="url(#clipPath338)"
         id="g334"><g
           transform="translate(371.8014,-349)"
           id="g340"><text
             id="text344"
             style="font-variant:normal;font-weight:normal;font-size:9px;font-family:ArialMT;-inkscape-font-specification:ArialMT;writing-mode:lr-tb;fill:#595959;fill-opacity:1;fill-rule:nonzero;stroke:none"
             transform="matrix(1,0,0,-1,0,379)"><tspan
               id="tspan342"
               y="0"
               x="0 5.0004001 10.0008 15.0012">2500</tspan></text>
</g></g></g><g
       id="g346"><g
         clip-path="url(#clipPath352)"
         id="g348"><g
           transform="translate(438.2147,-349)"
           id="g354"><text
             id="text358"
             style="font-variant:normal;font-weight:normal;font-size:9px;font-family:ArialMT;-inkscape-font-specification:ArialMT;writing-mode:lr-tb;fill:#595959;fill-opacity:1;fill-rule:nonzero;stroke:none"
             transform="matrix(1,0,0,-1,0,379)"><tspan
               id="tspan356"
               y="0"
               x="0 5.0004001 10.0008 15.0012">3000</tspan></text>
</g></g></g><g
       id="g360"><g
         clip-path="url(#clipPath366)"
         id="g362"><g
           transform="translate(504.628,-349)"
           id="g368"><text
             id="text372"
             style="font-variant:normal;font-weight:normal;font-size:9px;font-family:ArialMT;-inkscape-font-specification:ArialMT;writing-mode:lr-tb;fill:#595959;fill-opacity:1;fill-rule:nonzero;stroke:none"
             transform="matrix(1,0,0,-1,0,379)"><tspan
               id="tspan370"
               y="0"
               x="0 5.0004001 10.0008 15.0012">3500</tspan></text>
</g></g></g><g
       id="g374"><g
         clip-path="url(#clipPath380)"
         id="g376"><g
           transform="translate(571.0413,-349)"
           id="g382"><text
             id="text386"
             style="font-variant:normal;font-weight:normal;font-size:9px;font-family:ArialMT;-inkscape-font-specification:ArialMT;writing-mode:lr-tb;fill:#595959;fill-opacity:1;fill-rule:nonzero;stroke:none"
             transform="matrix(1,0,0,-1,0,379)"><tspan
               id="tspan384"
               y="0"
               x="0 5.0004001 10.0008 15.0012">4000</tspan></text>
</g></g></g><g
       id="g388"><g
         clip-path="url(#clipPath394)"
         id="g390"><g
           transform="translate(637.4546,-349)"
           id="g396"><text
             id="text400"
             style="font-variant:normal;font-weight:normal;font-size:9px;font-family:ArialMT;-inkscape-font-specification:ArialMT;writing-mode:lr-tb;fill:#595959;fill-opacity:1;fill-rule:nonzero;stroke:none"
             transform="matrix(1,0,0,-1,0,379)"><tspan
               id="tspan398"
               y="0"
               x="0 5.0004001 10.0008 15.0012">4500</tspan></text>
</g></g></g><g
       id="g402"><g
         clip-path="url(#clipPath408)"
         id="g404"><g
           transform="rotate(90,124.25,276.25)"
           id="g410"><text
             id="text414"
             style="font-variant:normal;font-weight:normal;font-size:10px;font-family:ArialMT;-inkscape-font-specification:ArialMT;writing-mode:lr-tb;fill:#595959;fill-opacity:1;fill-rule:nonzero;stroke:none"
             transform="matrix(1,0,0,-1,0,379)"><tspan
               id="tspan412"
               y="0"
               x="0 6.1100001 11.67 15 20.559999 26.120001 31.68 37.240002 42.799999 48.360001 51.139999 53.919998 57.25 60.580002 66.139999 71.699997 74.480003 79.480003">Throughput (req/s)</tspan></text>
</g></g></g><g
       id="g416"><g
         clip-path="url(#clipPath422)"
         id="g418"><g
           transform="translate(285.5298,-363)"
           id="g424"><text
             id="text428"
             style="font-variant:normal;font-weight:normal;font-size:10px;font-family:ArialMT;-inkscape-font-specification:ArialMT;writing-mode:lr-tb;fill:#595959;fill-opacity:1;fill-rule:nonzero;stroke:none"
             transform="matrix(1,0,0,-1,0,379)"><tspan
               id="tspan426"
               y="0"
               x="0 7.2199998 12.78 18.34 23.34 28.9 32.23 35.560001 41.119999 46.68 51.68 56.68 59.459999 65.019997 70.580002 75.580002 81.139999 83.360001 86.139999 89.470001 92.25 97.809998 101.14 106.7 112.26 117.82 122.82">Concurrency Level (threads)</tspan></text>
</g></g></g><g
       id="g430"><g
         clip-path="url(#clipPath436)"
         id="g432"><g
           transform="translate(208.7874,-21)"
           id="g438"><text
             id="text442"
             style="font-variant:normal;font-weight:normal;font-size:14px;font-family:ArialMT;-inkscape-font-specification:ArialMT;writing-mode:lr-tb;fill:#595959;fill-opacity:1;fill-rule:nonzero;stroke:none"
             transform="matrix(1,0,0,-1,0,379)"><tspan
               id="tspan440"
               y="0"
               x="0 8.5497999 16.335199 20.9958 28.7812 36.566601 44.352001 52.137402 59.922798 67.708199 71.598801 75.489403 79.379997 87.165398 91.825996 95.716599 103.502 110.502 114.3926 119.0532 126.8386 134.62399 142.40939 150.19479 157.19479 161.0854 168.0854">Throughput for 1s requests </tspan></text>
</g></g></g><g
       id="g444"><g
         clip-path="url(#clipPath450)"
         id="g446"><g
           transform="translate(380.7524,-21)"
           id="g452"><text
             id="text456"
             style="font-variant:normal;font-weight:normal;font-size:14px;font-family:ArialMT;-inkscape-font-specification:ArialMT;writing-mode:lr-tb;fill:#595959;fill-opacity:1;fill-rule:nonzero;stroke:none"
             transform="matrix(1,0,0,-1,0,379)"><tspan
               id="tspan454"
               y="0"
               x="0">—</tspan></text>
</g></g></g><g
       id="g458"><g
         clip-path="url(#clipPath464)"
         id="g460"><g
           transform="translate(398.6424,-21)"
           id="g466"><text
             id="text470"
             style="font-variant:normal;font-weight:normal;font-size:14px;font-family:ArialMT;-inkscape-font-specification:ArialMT;writing-mode:lr-tb;fill:#595959;fill-opacity:1;fill-rule:nonzero;stroke:none"
             transform="matrix(1,0,0,-1,0,379)"><tspan
               id="tspan468"
               y="0"
               x="0 3.8906 7 14.7854 22.570801 27.2314 34.2314 38.122002 45.907398 53.692799 61.478199 65.368797 72.368797 80.154198 84.814796 92.600197 100.3856 103.495 107.3856 111.2762 119.0616 123.7222 131.5076 139.293 147.0784 154.0784">fibers and kernel threads </tspan></text>
</g></g></g><g
       id="g472"><g
         clip-path="url(#clipPath478)"
         id="g474"><g
           transform="matrix(7.874016e-5,0,0,-7.874016e-5,673,185)"
           id="g480"><path
             id="path482"
             style="fill:none;stroke:#5b9bd5;stroke-width:19050;stroke-linecap:round;stroke-linejoin:round;stroke-miterlimit:10;stroke-dasharray:none;stroke-opacity:1"
             d="M 0,0 241300,1" /></g></g></g><g
       id="g484"><g
         clip-path="url(#clipPath490)"
         id="g486"><path
           id="path492"
           style="fill:#5b9bd5;fill-opacity:1;fill-rule:nonzero;stroke:none"
           d="m 684,186 c 0,-1.1046 -0.8954,-2 -2,-2 -1.1046,0 -2,0.8954 -2,2 0,1.1046 0.8954,2 2,2 1.1046,0 2,-0.8954 2,-2 z" /><g
           transform="matrix(7.874016e-5,0,0,-7.874016e-5,679.5,188.5)"
           id="g494"><path
             id="path496"
             style="fill:none;stroke:#5b9bd5;stroke-width:9525;stroke-linecap:butt;stroke-linejoin:round;stroke-miterlimit:10;stroke-dasharray:none;stroke-opacity:1"
             d="M 57150,31750 C 57150,45778.03 45778.03,57150 31750,57150 17721.97,57150 6350,45778.03 6350,31750 6350,17721.97 17721.97,6350 31750,6350 c 14028.03,0 25400,11371.97 25400,25400 z" /></g></g></g><g
       id="g498"><g
         clip-path="url(#clipPath504)"
         id="g500"><g
           transform="translate(694.3496,-196)"
           id="g506"><text
             id="text510"
             style="font-variant:normal;font-weight:normal;font-size:9px;font-family:ArialMT;-inkscape-font-specification:ArialMT;writing-mode:lr-tb;fill:#595959;fill-opacity:1;fill-rule:nonzero;stroke:none"
             transform="matrix(1,0,0,-1,0,379)"><tspan
               id="tspan508"
               y="0"
               x="0 2.9997001 5.0004001 9.9981003 14.9958 17.995501">fibers</tspan></text>
</g></g></g><g
       id="g512"><g
         clip-path="url(#clipPath518)"
         id="g514"><g
           transform="matrix(7.874016e-5,0,0,-7.874016e-5,673,169)"
           id="g520"><path
             id="path522"
             style="fill:none;stroke:#70ad47;stroke-width:19050;stroke-linecap:round;stroke-linejoin:round;stroke-miterlimit:10;stroke-dasharray:none;stroke-opacity:1"
             d="M 0,0 241300,1" /></g></g></g><g
       id="g524"><g
         clip-path="url(#clipPath530)"
         id="g526"><path
           id="path532"
           style="fill:#70ad47;fill-opacity:1;fill-rule:nonzero;stroke:none"
           d="m 684,170 c 0,-1.1046 -0.8954,-2 -2,-2 -1.1046,0 -2,0.8954 -2,2 0,1.1046 0.8954,2 2,2 1.1046,0 2,-0.8954 2,-2 z" /><g
           transform="matrix(7.874016e-5,0,0,-7.874016e-5,679.5,172.5)"
           id="g534"><path
             id="path536"
             style="fill:none;stroke:#70ad47;stroke-width:9525;stroke-linecap:butt;stroke-linejoin:round;stroke-miterlimit:10;stroke-dasharray:none;stroke-opacity:1"
             d="M 57150,31750 C 57150,45778.03 45778.03,57150 31750,57150 17721.97,57150 6350,45778.03 6350,31750 6350,17721.97 17721.97,6350 31750,6350 c 14028.03,0 25400,11371.97 25400,25400 z" /></g></g></g><g
       id="g538"><g
         clip-path="url(#clipPath544)"
         id="g540"><g
           transform="translate(694.3496,-212)"
           id="g546"><text
             id="text550"
             style="font-variant:normal;font-weight:normal;font-size:9px;font-family:ArialMT;-inkscape-font-specification:ArialMT;writing-mode:lr-tb;fill:#595959;fill-opacity:1;fill-rule:nonzero;stroke:none"
             transform="matrix(1,0,0,-1,0,379)"><tspan
               id="tspan548"
               y="0"
               x="0 5.0004001 10.0008 13.0032 18.003599 23.004 25.007401 27.010799 30.013201 35.013599 38.015999 43.016399 48.0168 53.0172">kernel threads</tspan></text>
</g></g></g><g
       id="g552"><g
         transform="matrix(7.874016e-5,0,0,-7.874016e-5,0.5,378.5)"
         id="g554"><path
           id="path556"
           style="fill:none;stroke:#d9d9d9;stroke-width:9525;stroke-linecap:butt;stroke-linejoin:round;stroke-miterlimit:10;stroke-dasharray:none;stroke-opacity:1"
           d="M 0,0 H 9664700 V 4800600 H 0 Z" /></g></g></g></svg>