<?xml version="1.0" encoding="UTF-8" standalone="no"?>
<svg
   xmlns:dc="http://purl.org/dc/elements/1.1/"
   xmlns:cc="http://creativecommons.org/ns#"
   xmlns:rdf="http://www.w3.org/1999/02/22-rdf-syntax-ns#"
   xmlns:svg="http://www.w3.org/2000/svg"
   xmlns="http://www.w3.org/2000/svg"
   viewBox="0 0 1016 505.33334"
   height="505.33334"
   width="1016"
   xml:space="preserve"
   id="svg2"
   version="1.1"><metadata
     id="metadata8"><rdf:RDF><cc:Work
         rdf:about=""><dc:format>image/svg+xml</dc:format><dc:type
           rdf:resource="http://purl.org/dc/dcmitype/StillImage" /></cc:Work></rdf:RDF></metadata><defs
     id="defs6"><clipPath
       id="clipPath24"
       clipPathUnits="userSpaceOnUse"><path
         id="path22"
         d="M 0,1 H 761 V 379 H 0 Z" /></clipPath><clipPath
       id="clipPath36"
       clipPathUnits="userSpaceOnUse"><path
         id="path34"
         d="M 0,1 H 761 V 379 H 0 Z" /></clipPath><clipPath
       id="clipPath48"
       clipPathUnits="userSpaceOnUse"><path
         id="path46"
         d="M 0,1 H 761 V 379 H 0 Z" /></clipPath><clipPath
       id="clipPath60"
       clipPathUnits="userSpaceOnUse"><path
         id="path58"
         d="M 0,1 H 761 V 379 H 0 Z" /></clipPath><clipPath
       id="clipPath72"
       clipPathUnits="userSpaceOnUse"><path
         id="path70"
         d="M 44,43 H 648 V 343 H 44 Z" /></clipPath><clipPath
       id="clipPath84"
       clipPathUnits="userSpaceOnUse"><path
         id="path82"
         d="M 0,1 H 761 V 379 H 0 Z" /></clipPath><clipPath
       id="clipPath128"
       clipPathUnits="userSpaceOnUse"><path
         id="path126"
         d="M 44,43 H 648 V 343 H 44 Z" /></clipPath><clipPath
       id="clipPath140"
       clipPathUnits="userSpaceOnUse"><path
         id="path138"
         d="M 0,1 H 761 V 379 H 0 Z" /></clipPath><clipPath
       id="clipPath166"
       clipPathUnits="userSpaceOnUse"><path
         id="path164"
         d="M 0,1 H 761 V 379 H 0 Z" /></clipPath><clipPath
       id="clipPath180"
       clipPathUnits="userSpaceOnUse"><path
         id="path178"
         d="M 0,1 H 761 V 379 H 0 Z" /></clipPath><clipPath
       id="clipPath194"
       clipPathUnits="userSpaceOnUse"><path
         id="path192"
         d="M 0,1 H 761 V 379 H 0 Z" /></clipPath><clipPath
       id="clipPath208"
       clipPathUnits="userSpaceOnUse"><path
         id="path206"
         d="M 0,1 H 761 V 379 H 0 Z" /></clipPath><clipPath
       id="clipPath222"
       clipPathUnits="userSpaceOnUse"><path
         id="path220"
         d="M 0,1 H 761 V 379 H 0 Z" /></clipPath><clipPath
       id="clipPath236"
       clipPathUnits="userSpaceOnUse"><path
         id="path234"
         d="M 0,1 H 761 V 379 H 0 Z" /></clipPath><clipPath
       id="clipPath250"
       clipPathUnits="userSpaceOnUse"><path
         id="path248"
         d="M 0,1 H 761 V 379 H 0 Z" /></clipPath><clipPath
       id="clipPath264"
       clipPathUnits="userSpaceOnUse"><path
         id="path262"
         d="M 0,1 H 761 V 379 H 0 Z" /></clipPath><clipPath
       id="clipPath278"
       clipPathUnits="userSpaceOnUse"><path
         id="path276"
         d="M 0,1 H 761 V 379 H 0 Z" /></clipPath><clipPath
       id="clipPath292"
       clipPathUnits="userSpaceOnUse"><path
         id="path290"
         d="M 0,1 H 761 V 379 H 0 Z" /></clipPath><clipPath
       id="clipPath306"
       clipPathUnits="userSpaceOnUse"><path
         id="path304"
         d="M 0,1 H 761 V 379 H 0 Z" /></clipPath><clipPath
       id="clipPath320"
       clipPathUnits="userSpaceOnUse"><path
         id="path318"
         d="M 0,1 H 761 V 379 H 0 Z" /></clipPath><clipPath
       id="clipPath334"
       clipPathUnits="userSpaceOnUse"><path
         id="path332"
         d="M 0,1 H 761 V 379 H 0 Z" /></clipPath><clipPath
       id="clipPath348"
       clipPathUnits="userSpaceOnUse"><path
         id="path346"
         d="M 0,1 H 761 V 379 H 0 Z" /></clipPath><clipPath
       id="clipPath362"
       clipPathUnits="userSpaceOnUse"><path
         id="path360"
         d="M 0,1 H 761 V 379 H 0 Z" /></clipPath><clipPath
       id="clipPath376"
       clipPathUnits="userSpaceOnUse"><path
         id="path374"
         d="M 0,1 H 761 V 379 H 0 Z" /></clipPath><clipPath
       id="clipPath390"
       clipPathUnits="userSpaceOnUse"><path
         id="path388"
         d="M 0,1 H 761 V 379 H 0 Z" /></clipPath><clipPath
       id="clipPath404"
       clipPathUnits="userSpaceOnUse"><path
         id="path402"
         d="M 0,1 H 761 V 379 H 0 Z" /></clipPath><clipPath
       id="clipPath418"
       clipPathUnits="userSpaceOnUse"><path
         id="path416"
         d="M 0,1 H 761 V 379 H 0 Z" /></clipPath><clipPath
       id="clipPath432"
       clipPathUnits="userSpaceOnUse"><path
         id="path430"
         d="M 0,1 H 761 V 379 H 0 Z" /></clipPath><clipPath
       id="clipPath446"
       clipPathUnits="userSpaceOnUse"><path
         id="path444"
         d="M 0,1 H 761 V 379 H 0 Z" /></clipPath><clipPath
       id="clipPath460"
       clipPathUnits="userSpaceOnUse"><path
         id="path458"
         d="M 0,1 H 761 V 379 H 0 Z" /></clipPath><clipPath
       id="clipPath474"
       clipPathUnits="userSpaceOnUse"><path
         id="path472"
         d="M 0,1 H 761 V 379 H 0 Z" /></clipPath><clipPath
       id="clipPath488"
       clipPathUnits="userSpaceOnUse"><path
         id="path486"
         d="M 0,1 H 761 V 379 H 0 Z" /></clipPath><clipPath
       id="clipPath500"
       clipPathUnits="userSpaceOnUse"><path
         id="path498"
         d="M 0,1 H 761 V 379 H 0 Z" /></clipPath><clipPath
       id="clipPath514"
       clipPathUnits="userSpaceOnUse"><path
         id="path512"
         d="M 0,1 H 761 V 379 H 0 Z" /></clipPath><clipPath
       id="clipPath528"
       clipPathUnits="userSpaceOnUse"><path
         id="path526"
         d="M 0,1 H 761 V 379 H 0 Z" /></clipPath><clipPath
       id="clipPath540"
       clipPathUnits="userSpaceOnUse"><path
         id="path538"
         d="M 0,1 H 761 V 379 H 0 Z" /></clipPath><clipPath
       id="clipPath554"
       clipPathUnits="userSpaceOnUse"><path
         id="path552"
         d="M 0,1 H 761 V 379 H 0 Z" /></clipPath></defs><g
     transform="matrix(1.3333333,0,0,-1.3333333,0,505.33333)"
     id="g10"><g
       id="g12" /><g
       id="g14"><path
         id="path16"
         style="fill:#ffffff;fill-opacity:1;fill-rule:nonzero;stroke:none"
         d="M 0,379 H 761 V 0.9999944 H 0 Z" /></g><g
       id="g18"><g
         clip-path="url(#clipPath24)"
         id="g20"><g
           transform="matrix(7.874016e-5,0,0,-7.874016e-5,44.5,342.5)"
           id="g26"><path
             id="path28"
             style="fill:none;stroke:#d9d9d9;stroke-width:9525;stroke-linecap:butt;stroke-linejoin:round;stroke-miterlimit:10;stroke-dasharray:none;stroke-opacity:1"
             d="M 0,3251200 H 7658100 M 0,2705100 H 7658100 M 0,2171700 H 7658100 M 0,1625600 H 7658100 M 0,1079500 H 7658100 M 0,533400 H 7658100 M 0,0 h 7658100" /></g></g></g><g
       id="g30"><g
         clip-path="url(#clipPath36)"
         id="g32"><g
           transform="matrix(7.874016e-5,0,0,-7.874016e-5,44.5,342.5)"
           id="g38"><path
             id="path40"
             style="fill:none;stroke:#d9d9d9;stroke-width:9525;stroke-linecap:butt;stroke-linejoin:round;stroke-miterlimit:10;stroke-dasharray:none;stroke-opacity:1"
             d="M 850900,0 V 3797300 M 1701800,0 V 3797300 M 2552700,0 V 3797300 M 3403600,0 V 3797300 M 4254500,0 V 3797300 M 5105400,0 V 3797300 M 5956300,0 V 3797300 M 6807200,0 V 3797300 M 7658100,0 v 3797300" /></g></g></g><g
       id="g42"><g
         clip-path="url(#clipPath48)"
         id="g44"><g
           transform="matrix(7.874016e-5,0,0,7.874016e-5,44.5,43.5)"
           id="g50"><path
             id="path52"
             style="fill:none;stroke:#bfbfbf;stroke-width:9525;stroke-linecap:butt;stroke-linejoin:round;stroke-miterlimit:10;stroke-dasharray:none;stroke-opacity:1"
             d="M 0,0 1,3797300" /></g></g></g><g
       id="g54"><g
         clip-path="url(#clipPath60)"
         id="g56"><g
           transform="matrix(7.874016e-5,0,0,-7.874016e-5,44.5,43.5)"
           id="g62"><path
             id="path64"
             style="fill:none;stroke:#bfbfbf;stroke-width:9525;stroke-linecap:butt;stroke-linejoin:round;stroke-miterlimit:10;stroke-dasharray:none;stroke-opacity:1"
             d="M 0,0 7658100,1" /></g></g></g><g
       id="g66"><g
         clip-path="url(#clipPath72)"
         id="g68"><g
           transform="matrix(7.874016e-5,0,0,-7.874016e-5,58,307)"
           id="g74"><path
             id="path76"
             style="fill:none;stroke:#5b9bd5;stroke-width:19050;stroke-linecap:round;stroke-linejoin:round;stroke-miterlimit:10;stroke-dasharray:none;stroke-opacity:1"
             d="M 0,1257300 C 84992.58,842885.1 141654.3,28111.22 254977.7,14056.11 368300.2,0 467457.2,1122184 679938.6,1172966 892419.1,1223747 1104900,397185.8 1529861,318746.5 1954822,240306 2379784,710943.4 3229708,702328.9 4079631,693713.4 5496169,412148.4 6629400,267058.1" /></g></g></g><g
       id="g78"><g
         clip-path="url(#clipPath84)"
         id="g80"><path
           id="path86"
           style="fill:#5b9bd5;fill-opacity:1;fill-rule:nonzero;stroke:none"
           d="m 59.5,208.5 c 0,-1.1046 -0.89543,-2 -2,-2 -1.10457,0 -2,0.8954 -2,2 0,1.1046 0.89543,2 2,2 1.10457,0 2,-0.8954 2,-2 z" /><g
           transform="matrix(7.874016e-5,0,0,-7.874016e-5,55,211)"
           id="g88"><path
             id="path90"
             style="fill:none;stroke:#5b9bd5;stroke-width:9525;stroke-linecap:butt;stroke-linejoin:round;stroke-miterlimit:10;stroke-dasharray:none;stroke-opacity:1"
             d="M 57150,31750 C 57150,45778.03 45778.03,57150 31750,57150 17721.97,57150 6350,45778.03 6350,31750 6350,17721.97 17721.97,6350 31750,6350 c 14028.03,0 25400,11371.97 25400,25400 z" /></g><path
           id="path92"
           style="fill:#5b9bd5;fill-opacity:1;fill-rule:nonzero;stroke:none"
           d="m 79.5,306.5 c 0,-1.1046 -0.89543,-2 -2,-2 -1.10457,0 -2,0.8954 -2,2 0,1.1046 0.89543,2 2,2 1.10457,0 2,-0.8954 2,-2 z" /><g
           transform="matrix(7.874016e-5,0,0,-7.874016e-5,75,309)"
           id="g94"><path
             id="path96"
             style="fill:none;stroke:#5b9bd5;stroke-width:9525;stroke-linecap:butt;stroke-linejoin:round;stroke-miterlimit:10;stroke-dasharray:none;stroke-opacity:1"
             d="M 57150,31750 C 57150,45778.03 45778.03,57150 31750,57150 17721.97,57150 6350,45778.03 6350,31750 6350,17721.97 17721.97,6350 31750,6350 c 14028.03,0 25400,11371.97 25400,25400 z" /></g><path
           id="path98"
           style="fill:#5b9bd5;fill-opacity:1;fill-rule:nonzero;stroke:none"
           d="m 112.5,215.5 c 0,-1.1046 -0.8954,-2 -2,-2 -1.1046,0 -2,0.8954 -2,2 0,1.1046 0.8954,2 2,2 1.1046,0 2,-0.8954 2,-2 z" /><g
           transform="matrix(7.874016e-5,0,0,-7.874016e-5,108,218)"
           id="g100"><path
             id="path102"
             style="fill:none;stroke:#5b9bd5;stroke-width:9525;stroke-linecap:butt;stroke-linejoin:round;stroke-miterlimit:10;stroke-dasharray:none;stroke-opacity:1"
             d="M 57150,31750 C 57150,45778.03 45778.03,57150 31750,57150 17721.97,57150 6350,45778.03 6350,31750 6350,17721.97 17721.97,6350 31750,6350 c 14028.03,0 25400,11371.97 25400,25400 z" /></g><path
           id="path104"
           style="fill:#5b9bd5;fill-opacity:1;fill-rule:nonzero;stroke:none"
           d="m 179.5,282.5 c 0,-1.1046 -0.8954,-2 -2,-2 -1.1046,0 -2,0.8954 -2,2 0,1.1046 0.8954,2 2,2 1.1046,0 2,-0.8954 2,-2 z" /><g
           transform="matrix(7.874016e-5,0,0,-7.874016e-5,175,285)"
           id="g106"><path
             id="path108"
             style="fill:none;stroke:#5b9bd5;stroke-width:9525;stroke-linecap:butt;stroke-linejoin:round;stroke-miterlimit:10;stroke-dasharray:none;stroke-opacity:1"
             d="M 57150,31750 C 57150,45778.03 45778.03,57150 31750,57150 17721.97,57150 6350,45778.03 6350,31750 6350,17721.97 17721.97,6350 31750,6350 c 14028.03,0 25400,11371.97 25400,25400 z" /></g><path
           id="path110"
           style="fill:#5b9bd5;fill-opacity:1;fill-rule:nonzero;stroke:none"
           d="m 313.5,252.5 c 0,-1.1046 -0.8954,-2 -2,-2 -1.1046,0 -2,0.8954 -2,2 0,1.1046 0.8954,2 2,2 1.1046,0 2,-0.8954 2,-2 z" /><g
           transform="matrix(7.874016e-5,0,0,-7.874016e-5,309,255)"
           id="g112"><path
             id="path114"
             style="fill:none;stroke:#5b9bd5;stroke-width:9525;stroke-linecap:butt;stroke-linejoin:round;stroke-miterlimit:10;stroke-dasharray:none;stroke-opacity:1"
             d="M 57150,31750 C 57150,45778.03 45778.03,57150 31750,57150 17721.97,57150 6350,45778.03 6350,31750 6350,17721.97 17721.97,6350 31750,6350 c 14028.03,0 25400,11371.97 25400,25400 z" /></g><path
           id="path116"
           style="fill:#5b9bd5;fill-opacity:1;fill-rule:nonzero;stroke:none"
           d="m 581.5,286.5 c 0,-1.1046 -0.8954,-2 -2,-2 -1.1046,0 -2,0.8954 -2,2 0,1.1046 0.8954,2 2,2 1.1046,0 2,-0.8954 2,-2 z" /><g
           transform="matrix(7.874016e-5,0,0,-7.874016e-5,577,289)"
           id="g118"><path
             id="path120"
             style="fill:none;stroke:#5b9bd5;stroke-width:9525;stroke-linecap:butt;stroke-linejoin:round;stroke-miterlimit:10;stroke-dasharray:none;stroke-opacity:1"
             d="M 57150,31750 C 57150,45778.03 45778.03,57150 31750,57150 17721.97,57150 6350,45778.03 6350,31750 6350,17721.97 17721.97,6350 31750,6350 c 14028.03,0 25400,11371.97 25400,25400 z" /></g></g></g><g
       id="g122"><g
         clip-path="url(#clipPath128)"
         id="g124"><g
           transform="matrix(7.874016e-5,0,0,-7.874016e-5,58,264)"
           id="g130"><path
             id="path132"
             style="fill:none;stroke:#70ad47;stroke-width:19050;stroke-linecap:round;stroke-linejoin:round;stroke-miterlimit:10;stroke-dasharray:none;stroke-opacity:1"
             d="M 0,1615961 C 85725.25,1142754 142875.4,0 257175.8,196340.6 371475.1,392680.1 614362.3,2361056 685800,2794000" /></g></g></g><g
       id="g134"><g
         clip-path="url(#clipPath140)"
         id="g136"><path
           id="path142"
           style="fill:#70ad47;fill-opacity:1;fill-rule:nonzero;stroke:none"
           d="m 59.5,138.5 c 0,-1.1046 -0.89543,-2 -2,-2 -1.10457,0 -2,0.8954 -2,2 0,1.1046 0.89543,2 2,2 1.10457,0 2,-0.8954 2,-2 z" /><g
           transform="matrix(7.874016e-5,0,0,-7.874016e-5,55,141)"
           id="g144"><path
             id="path146"
             style="fill:none;stroke:#70ad47;stroke-width:9525;stroke-linecap:butt;stroke-linejoin:round;stroke-miterlimit:10;stroke-dasharray:none;stroke-opacity:1"
             d="M 57150,31750 C 57150,45778.03 45778.03,57150 31750,57150 17721.97,57150 6350,45778.03 6350,31750 6350,17721.97 17721.97,6350 31750,6350 c 14028.03,0 25400,11371.97 25400,25400 z" /></g><path
           id="path148"
           style="fill:#70ad47;fill-opacity:1;fill-rule:nonzero;stroke:none"
           d="m 79.5,250.5 c 0,-1.1046 -0.89543,-2 -2,-2 -1.10457,0 -2,0.8954 -2,2 0,1.1046 0.89543,2 2,2 1.10457,0 2,-0.8954 2,-2 z" /><g
           transform="matrix(7.874016e-5,0,0,-7.874016e-5,75,253)"
           id="g150"><path
             id="path152"
             style="fill:none;stroke:#70ad47;stroke-width:9525;stroke-linecap:butt;stroke-linejoin:round;stroke-miterlimit:10;stroke-dasharray:none;stroke-opacity:1"
             d="M 57150,31750 C 57150,45778.03 45778.03,57150 31750,57150 17721.97,57150 6350,45778.03 6350,31750 6350,17721.97 17721.97,6350 31750,6350 c 14028.03,0 25400,11371.97 25400,25400 z" /></g><path
           id="path154"
           style="fill:#70ad47;fill-opacity:1;fill-rule:nonzero;stroke:none"
           d="m 112.5,45.5 c 0,-1.10457 -0.8954,-2 -2,-2 -1.1046,0 -2,0.89543 -2,2 0,1.10457 0.8954,2 2,2 1.1046,0 2,-0.89543 2,-2 z" /><g
           transform="matrix(7.874016e-5,0,0,-7.874016e-5,108,48)"
           id="g156"><path
             id="path158"
             style="fill:none;stroke:#70ad47;stroke-width:9525;stroke-linecap:butt;stroke-linejoin:round;stroke-miterlimit:10;stroke-dasharray:none;stroke-opacity:1"
             d="M 57150,31750 C 57150,45778.03 45778.03,57150 31750,57150 17721.97,57150 6350,45778.03 6350,31750 6350,17721.97 17721.97,6350 31750,6350 c 14028.03,0 25400,11371.97 25400,25400 z" /></g></g></g><g
       id="g160"><g
         clip-path="url(#clipPath166)"
         id="g162"><g
           transform="translate(32.00504,-338)"
           id="g168"><text
             id="text172"
             style="font-variant:normal;font-weight:normal;font-size:9px;font-family:ArialMT;-inkscape-font-specification:ArialMT;writing-mode:lr-tb;fill:#595959;fill-opacity:1;fill-rule:nonzero;stroke:none"
             transform="matrix(1,0,0,-1,0,379)"><tspan
               id="tspan170"
               y="0"
               x="0">0</tspan></text>
</g></g></g><g
       id="g174"><g
         clip-path="url(#clipPath180)"
         id="g176"><g
           transform="translate(32.00504,-295)"
           id="g182"><text
             id="text186"
             style="font-variant:normal;font-weight:normal;font-size:9px;font-family:ArialMT;-inkscape-font-specification:ArialMT;writing-mode:lr-tb;fill:#595959;fill-opacity:1;fill-rule:nonzero;stroke:none"
             transform="matrix(1,0,0,-1,0,379)"><tspan
               id="tspan184"
               y="0"
               x="0">2</tspan></text>
</g></g></g><g
       id="g188"><g
         clip-path="url(#clipPath194)"
         id="g190"><g
           transform="translate(32.00504,-252)"
           id="g196"><text
             id="text200"
             style="font-variant:normal;font-weight:normal;font-size:9px;font-family:ArialMT;-inkscape-font-specification:ArialMT;writing-mode:lr-tb;fill:#595959;fill-opacity:1;fill-rule:nonzero;stroke:none"
             transform="matrix(1,0,0,-1,0,379)"><tspan
               id="tspan198"
               y="0"
               x="0">4</tspan></text>
</g></g></g><g
       id="g202"><g
         clip-path="url(#clipPath208)"
         id="g204"><g
           transform="translate(32.00504,-210)"
           id="g210"><text
             id="text214"
             style="font-variant:normal;font-weight:normal;font-size:9px;font-family:ArialMT;-inkscape-font-specification:ArialMT;writing-mode:lr-tb;fill:#595959;fill-opacity:1;fill-rule:nonzero;stroke:none"
             transform="matrix(1,0,0,-1,0,379)"><tspan
               id="tspan212"
               y="0"
               x="0">6</tspan></text>
</g></g></g><g
       id="g216"><g
         clip-path="url(#clipPath222)"
         id="g218"><g
           transform="translate(32.00504,-167)"
           id="g224"><text
             id="text228"
             style="font-variant:normal;font-weight:normal;font-size:9px;font-family:ArialMT;-inkscape-font-specification:ArialMT;writing-mode:lr-tb;fill:#595959;fill-opacity:1;fill-rule:nonzero;stroke:none"
             transform="matrix(1,0,0,-1,0,379)"><tspan
               id="tspan226"
               y="0"
               x="0">8</tspan></text>
</g></g></g><g
       id="g230"><g
         clip-path="url(#clipPath236)"
         id="g232"><g
           transform="translate(27,-124)"
           id="g238"><text
             id="text242"
             style="font-variant:normal;font-weight:normal;font-size:9px;font-family:ArialMT;-inkscape-font-specification:ArialMT;writing-mode:lr-tb;fill:#595959;fill-opacity:1;fill-rule:nonzero;stroke:none"
             transform="matrix(1,0,0,-1,0,379)"><tspan
               id="tspan240"
               y="0"
               x="0 5.0004001">10</tspan></text>
</g></g></g><g
       id="g244"><g
         clip-path="url(#clipPath250)"
         id="g246"><g
           transform="translate(27,-81)"
           id="g252"><text
             id="text256"
             style="font-variant:normal;font-weight:normal;font-size:9px;font-family:ArialMT;-inkscape-font-specification:ArialMT;writing-mode:lr-tb;fill:#595959;fill-opacity:1;fill-rule:nonzero;stroke:none"
             transform="matrix(1,0,0,-1,0,379)"><tspan
               id="tspan254"
               y="0"
               x="0 5.0004001">12</tspan></text>
</g></g></g><g
       id="g258"><g
         clip-path="url(#clipPath264)"
         id="g260"><g
           transform="translate(27,-39)"
           id="g266"><text
             id="text270"
             style="font-variant:normal;font-weight:normal;font-size:9px;font-family:ArialMT;-inkscape-font-specification:ArialMT;writing-mode:lr-tb;fill:#595959;fill-opacity:1;fill-rule:nonzero;stroke:none"
             transform="matrix(1,0,0,-1,0,379)"><tspan
               id="tspan268"
               y="0"
               x="0 5.0004001">14</tspan></text>
</g></g></g><g
       id="g272"><g
         clip-path="url(#clipPath278)"
         id="g274"><g
           transform="translate(42.24756,-349)"
           id="g280"><text
             id="text284"
             style="font-variant:normal;font-weight:normal;font-size:9px;font-family:ArialMT;-inkscape-font-specification:ArialMT;writing-mode:lr-tb;fill:#595959;fill-opacity:1;fill-rule:nonzero;stroke:none"
             transform="matrix(1,0,0,-1,0,379)"><tspan
               id="tspan282"
               y="0"
               x="0">0</tspan></text>
</g></g></g><g
       id="g286"><g
         clip-path="url(#clipPath292)"
         id="g288"><g
           transform="translate(104.2108,-349)"
           id="g294"><text
             id="text298"
             style="font-variant:normal;font-weight:normal;font-size:9px;font-family:ArialMT;-inkscape-font-specification:ArialMT;writing-mode:lr-tb;fill:#595959;fill-opacity:1;fill-rule:nonzero;stroke:none"
             transform="matrix(1,0,0,-1,0,379)"><tspan
               id="tspan296"
               y="0"
               x="0 5.0004001 10.0008">500</tspan></text>
</g></g></g><g
       id="g300"><g
         clip-path="url(#clipPath306)"
         id="g302"><g
           transform="translate(168.6765,-349)"
           id="g308"><text
             id="text312"
             style="font-variant:normal;font-weight:normal;font-size:9px;font-family:ArialMT;-inkscape-font-specification:ArialMT;writing-mode:lr-tb;fill:#595959;fill-opacity:1;fill-rule:nonzero;stroke:none"
             transform="matrix(1,0,0,-1,0,379)"><tspan
               id="tspan310"
               y="0"
               x="0 5.0004001 10.0008 15.0012">1000</tspan></text>
</g></g></g><g
       id="g314"><g
         clip-path="url(#clipPath320)"
         id="g316"><g
           transform="translate(235.6449,-349)"
           id="g322"><text
             id="text326"
             style="font-variant:normal;font-weight:normal;font-size:9px;font-family:ArialMT;-inkscape-font-specification:ArialMT;writing-mode:lr-tb;fill:#595959;fill-opacity:1;fill-rule:nonzero;stroke:none"
             transform="matrix(1,0,0,-1,0,379)"><tspan
               id="tspan324"
               y="0"
               x="0 5.0004001 10.0008 15.0012">1500</tspan></text>
</g></g></g><g
       id="g328"><g
         clip-path="url(#clipPath334)"
         id="g330"><g
           transform="translate(302.6132,-349)"
           id="g336"><text
             id="text340"
             style="font-variant:normal;font-weight:normal;font-size:9px;font-family:ArialMT;-inkscape-font-specification:ArialMT;writing-mode:lr-tb;fill:#595959;fill-opacity:1;fill-rule:nonzero;stroke:none"
             transform="matrix(1,0,0,-1,0,379)"><tspan
               id="tspan338"
               y="0"
               x="0 5.0004001 10.0008 15.0012">2000</tspan></text>
</g></g></g><g
       id="g342"><g
         clip-path="url(#clipPath348)"
         id="g344"><g
           transform="translate(369.5814,-349)"
           id="g350"><text
             id="text354"
             style="font-variant:normal;font-weight:normal;font-size:9px;font-family:ArialMT;-inkscape-font-specification:ArialMT;writing-mode:lr-tb;fill:#595959;fill-opacity:1;fill-rule:nonzero;stroke:none"
             transform="matrix(1,0,0,-1,0,379)"><tspan
               id="tspan352"
               y="0"
               x="0 5.0004001 10.0008 15.0012">2500</tspan></text>
</g></g></g><g
       id="g356"><g
         clip-path="url(#clipPath362)"
         id="g358"><g
           transform="translate(436.5497,-349)"
           id="g364"><text
             id="text368"
             style="font-variant:normal;font-weight:normal;font-size:9px;font-family:ArialMT;-inkscape-font-specification:ArialMT;writing-mode:lr-tb;fill:#595959;fill-opacity:1;fill-rule:nonzero;stroke:none"
             transform="matrix(1,0,0,-1,0,379)"><tspan
               id="tspan366"
               y="0"
               x="0 5.0004001 10.0008 15.0012">3000</tspan></text>
</g></g></g><g
       id="g370"><g
         clip-path="url(#clipPath376)"
         id="g372"><g
           transform="translate(503.518,-349)"
           id="g378"><text
             id="text382"
             style="font-variant:normal;font-weight:normal;font-size:9px;font-family:ArialMT;-inkscape-font-specification:ArialMT;writing-mode:lr-tb;fill:#595959;fill-opacity:1;fill-rule:nonzero;stroke:none"
             transform="matrix(1,0,0,-1,0,379)"><tspan
               id="tspan380"
               y="0"
               x="0 5.0004001 10.0008 15.0012">3500</tspan></text>
</g></g></g><g
       id="g384"><g
         clip-path="url(#clipPath390)"
         id="g386"><g
           transform="translate(570.4863,-349)"
           id="g392"><text
             id="text396"
             style="font-variant:normal;font-weight:normal;font-size:9px;font-family:ArialMT;-inkscape-font-specification:ArialMT;writing-mode:lr-tb;fill:#595959;fill-opacity:1;fill-rule:nonzero;stroke:none"
             transform="matrix(1,0,0,-1,0,379)"><tspan
               id="tspan394"
               y="0"
               x="0 5.0004001 10.0008 15.0012">4000</tspan></text>
</g></g></g><g
       id="g398"><g
         clip-path="url(#clipPath404)"
         id="g400"><g
           transform="translate(637.4546,-349)"
           id="g406"><text
             id="text410"
             style="font-variant:normal;font-weight:normal;font-size:9px;font-family:ArialMT;-inkscape-font-specification:ArialMT;writing-mode:lr-tb;fill:#595959;fill-opacity:1;fill-rule:nonzero;stroke:none"
             transform="matrix(1,0,0,-1,0,379)"><tspan
               id="tspan408"
               y="0"
               x="0 5.0004001 10.0008 15.0012">4500</tspan></text>
</g></g></g><g
       id="g412"><g
         clip-path="url(#clipPath418)"
         id="g414"><g
           transform="rotate(90,124.25,276.25)"
           id="g420"><text
             id="text424"
             style="font-variant:normal;font-weight:normal;font-size:10px;font-family:ArialMT;-inkscape-font-specification:ArialMT;writing-mode:lr-tb;fill:#595959;fill-opacity:1;fill-rule:nonzero;stroke:none"
             transform="matrix(1,0,0,-1,0,379)"><tspan
               id="tspan422"
               y="0"
               x="0 6.1100001 11.67 15 20.559999 26.120001 31.68 37.240002 42.799999 48.360001 51.139999 53.919998 57.25 60.580002 66.139999 71.699997 74.480003 79.480003">Throughput (req/s)</tspan></text>
</g></g></g><g
       id="g426"><g
         clip-path="url(#clipPath432)"
         id="g428"><g
           transform="translate(283.0323,-363)"
           id="g434"><text
             id="text438"
             style="font-variant:normal;font-weight:normal;font-size:10px;font-family:ArialMT;-inkscape-font-specification:ArialMT;writing-mode:lr-tb;fill:#595959;fill-opacity:1;fill-rule:nonzero;stroke:none"
             transform="matrix(1,0,0,-1,0,379)"><tspan
               id="tspan436"
               y="0"
               x="0 7.2199998 12.78 18.34 23.34 28.9 32.23 35.560001 41.119999 46.68 51.68 56.68 59.459999 65.019997 70.580002 75.580002 81.139999 83.360001 86.139999 89.470001 92.25 97.809998 101.14 106.7 112.26 117.82 122.82">Concurrency Level (threads)</tspan></text>
</g></g></g><g
       id="g440"><g
         clip-path="url(#clipPath446)"
         id="g442"><g
           transform="translate(204.8949,-20)"
           id="g448"><text
             id="text452"
             style="font-variant:normal;font-weight:normal;font-size:14px;font-family:ArialMT;-inkscape-font-specification:ArialMT;writing-mode:lr-tb;fill:#595959;fill-opacity:1;fill-rule:nonzero;stroke:none"
             transform="matrix(1,0,0,-1,0,379)"><tspan
               id="tspan450"
               y="0"
               x="0 8.5497999 16.335199 20.9958 28.7812 36.566601 44.352001 52.137402 59.922798 67.708199 71.598801 75.489403 79.379997 87.165398 91.825996 95.716599 103.502 111.2874 118.2874 122.178 126.8386 134.62399 142.40939 150.19479 157.98019 164.98019 168.8708 175.8708">Throughput for 10s requests </tspan></text>
</g></g></g><g
       id="g454"><g
         clip-path="url(#clipPath460)"
         id="g456"><g
           transform="translate(384.6449,-20)"
           id="g462"><text
             id="text466"
             style="font-variant:normal;font-weight:normal;font-size:14px;font-family:ArialMT;-inkscape-font-specification:ArialMT;writing-mode:lr-tb;fill:#595959;fill-opacity:1;fill-rule:nonzero;stroke:none"
             transform="matrix(1,0,0,-1,0,379)"><tspan
               id="tspan464"
               y="0"
               x="0">—</tspan></text>
</g></g></g><g
       id="g468"><g
         clip-path="url(#clipPath474)"
         id="g470"><g
           transform="translate(402.5349,-20)"
           id="g476"><text
             id="text480"
             style="font-variant:normal;font-weight:normal;font-size:14px;font-family:ArialMT;-inkscape-font-specification:ArialMT;writing-mode:lr-tb;fill:#595959;fill-opacity:1;fill-rule:nonzero;stroke:none"
             transform="matrix(1,0,0,-1,0,379)"><tspan
               id="tspan478"
               y="0"
               x="0 3.8906 7 14.7854 22.570801 27.2314 34.2314 38.122002 45.907398 53.692799 61.478199 65.368797 72.368797 80.154198 84.814796 92.600197 100.3856 103.495 107.3856 111.2762 119.0616 123.7222 131.5076 139.293 147.0784 154.0784">fibers and kernel threads </tspan></text>
</g></g></g><g
       id="g482"><g
         clip-path="url(#clipPath488)"
         id="g484"><g
           transform="matrix(7.874016e-5,0,0,-7.874016e-5,673,185)"
           id="g490"><path
             id="path492"
             style="fill:none;stroke:#5b9bd5;stroke-width:19050;stroke-linecap:round;stroke-linejoin:round;stroke-miterlimit:10;stroke-dasharray:none;stroke-opacity:1"
             d="M 0,0 241300,1" /></g></g></g><g
       id="g494"><g
         clip-path="url(#clipPath500)"
         id="g496"><path
           id="path502"
           style="fill:#5b9bd5;fill-opacity:1;fill-rule:nonzero;stroke:none"
           d="m 684,186 c 0,-1.1046 -0.8954,-2 -2,-2 -1.1046,0 -2,0.8954 -2,2 0,1.1046 0.8954,2 2,2 1.1046,0 2,-0.8954 2,-2 z" /><g
           transform="matrix(7.874016e-5,0,0,-7.874016e-5,679.5,188.5)"
           id="g504"><path
             id="path506"
             style="fill:none;stroke:#5b9bd5;stroke-width:9525;stroke-linecap:butt;stroke-linejoin:round;stroke-miterlimit:10;stroke-dasharray:none;stroke-opacity:1"
             d="M 57150,31750 C 57150,45778.03 45778.03,57150 31750,57150 17721.97,57150 6350,45778.03 6350,31750 6350,17721.97 17721.97,6350 31750,6350 c 14028.03,0 25400,11371.97 25400,25400 z" /></g></g></g><g
       id="g508"><g
         clip-path="url(#clipPath514)"
         id="g510"><g
           transform="translate(694.3496,-196)"
           id="g516"><text
             id="text520"
             style="font-variant:normal;font-weight:normal;font-size:9px;font-family:ArialMT;-inkscape-font-specification:ArialMT;writing-mode:lr-tb;fill:#595959;fill-opacity:1;fill-rule:nonzero;stroke:none"
             transform="matrix(1,0,0,-1,0,379)"><tspan
               id="tspan518"
               y="0"
               x="0 2.9997001 5.0004001 9.9981003 14.9958 17.995501">fibers</tspan></text>
</g></g></g><g
       id="g522"><g
         clip-path="url(#clipPath528)"
         id="g524"><g
           transform="matrix(7.874016e-5,0,0,-7.874016e-5,673,169)"
           id="g530"><path
             id="path532"
             style="fill:none;stroke:#70ad47;stroke-width:19050;stroke-linecap:round;stroke-linejoin:round;stroke-miterlimit:10;stroke-dasharray:none;stroke-opacity:1"
             d="M 0,0 241300,1" /></g></g></g><g
       id="g534"><g
         clip-path="url(#clipPath540)"
         id="g536"><path
           id="path542"
           style="fill:#70ad47;fill-opacity:1;fill-rule:nonzero;stroke:none"
           d="m 684,170 c 0,-1.1046 -0.8954,-2 -2,-2 -1.1046,0 -2,0.8954 -2,2 0,1.1046 0.8954,2 2,2 1.1046,0 2,-0.8954 2,-2 z" /><g
           transform="matrix(7.874016e-5,0,0,-7.874016e-5,679.5,172.5)"
           id="g544"><path
             id="path546"
             style="fill:none;stroke:#70ad47;stroke-width:9525;stroke-linecap:butt;stroke-linejoin:round;stroke-miterlimit:10;stroke-dasharray:none;stroke-opacity:1"
             d="M 57150,31750 C 57150,45778.03 45778.03,57150 31750,57150 17721.97,57150 6350,45778.03 6350,31750 6350,17721.97 17721.97,6350 31750,6350 c 14028.03,0 25400,11371.97 25400,25400 z" /></g></g></g><g
       id="g548"><g
         clip-path="url(#clipPath554)"
         id="g550"><g
           transform="translate(694.3496,-212)"
           id="g556"><text
             id="text560"
             style="font-variant:normal;font-weight:normal;font-size:9px;font-family:ArialMT;-inkscape-font-specification:ArialMT;writing-mode:lr-tb;fill:#595959;fill-opacity:1;fill-rule:nonzero;stroke:none"
             transform="matrix(1,0,0,-1,0,379)"><tspan
               id="tspan558"
               y="0"
               x="0 5.0004001 10.0008 13.0032 18.003599 23.004 25.007401 27.010799 30.013201 35.013599 38.015999 43.016399 48.0168 53.0172">kernel threads</tspan></text>
</g></g></g><g
       id="g562"><g
         transform="matrix(7.874016e-5,0,0,-7.874016e-5,0.5,378.5)"
         id="g564"><path
           id="path566"
           style="fill:none;stroke:#d9d9d9;stroke-width:9525;stroke-linecap:butt;stroke-linejoin:round;stroke-miterlimit:10;stroke-dasharray:none;stroke-opacity:1"
           d="M 0,0 H 9664700 V 4800600 H 0 Z" /></g></g></g></svg>